<?xml version="1.0" encoding="utf-8" standalone="no"?>
<!DOCTYPE svg PUBLIC "-//W3C//DTD SVG 1.1//EN"
  "http://www.w3.org/Graphics/SVG/1.1/DTD/svg11.dtd">
<svg xmlns:xlink="http://www.w3.org/1999/xlink" width="424.75125pt" height="148.20675pt" viewBox="0 0 424.75125 148.20675" xmlns="http://www.w3.org/2000/svg" version="1.1">
 <metadata>
  <rdf:RDF xmlns:dc="http://purl.org/dc/elements/1.1/" xmlns:cc="http://creativecommons.org/ns#" xmlns:rdf="http://www.w3.org/1999/02/22-rdf-syntax-ns#">
   <cc:Work>
    <dc:type rdf:resource="http://purl.org/dc/dcmitype/StillImage"/>
    <dc:date>2026-07-06T13:45:43.442078</dc:date>
    <dc:format>image/svg+xml</dc:format>
    <dc:creator>
     <cc:Agent>
      <dc:title>Matplotlib v3.11.0, https://matplotlib.org/</dc:title>
     </cc:Agent>
    </dc:creator>
   </cc:Work>
  </rdf:RDF>
 </metadata>
 <defs>
  <style type="text/css">*{stroke-linejoin: round; stroke-linecap: butt}</style>
 </defs>
 <g id="figure_1">
  <g id="patch_1">
   <path d="M -0 148.20675 
L 424.75125 148.20675 
L 424.75125 0 
L -0 0 
z
" style="fill: #ffffff"/>
  </g>
  <g id="axes_1">
   <g id="patch_2">
    <path d="M 50.15125 114.006125 
L 417.55125 114.006125 
L 417.55125 67.768 
L 50.15125 67.768 
z
" style="fill: #ffffff"/>
   </g>
   <g id="line2d_1">
    <path d="M 66.85125 76.437648 
L 88.240413 76.437648 
L 91.531053 105.336477 
L 93.176373 76.437648 
L 101.402974 76.437648 
L 103.048294 90.887062 
L 104.693615 76.437648 
L 112.920216 76.437648 
L 116.210856 105.336477 
L 117.856176 105.336477 
L 119.501496 76.437648 
L 121.146817 76.437648 
L 124.437457 105.336477 
L 129.373417 105.336477 
L 131.018738 76.437648 
L 132.664058 76.437648 
L 135.954698 105.336477 
L 137.600018 105.336477 
L 139.245339 76.437648 
L 140.890659 76.437648 
L 142.535979 90.887062 
L 144.181299 76.437648 
L 145.826619 76.437648 
L 147.47194 90.887062 
L 149.11726 76.437648 
L 150.76258 76.437648 
L 154.05322 105.336477 
L 155.698541 105.336477 
L 157.343861 76.437648 
L 158.989181 76.437648 
L 160.634501 90.887062 
L 162.279821 76.437648 
L 163.925142 76.437648 
L 165.570462 90.887062 
L 167.215782 76.437648 
L 168.861102 76.437648 
L 170.506422 90.887062 
L 172.151743 76.437648 
L 173.797063 76.437648 
L 177.087703 105.336477 
L 178.733023 76.437648 
L 185.314304 76.437648 
L 186.959624 90.887062 
L 188.604945 76.437648 
L 190.250265 76.437648 
L 191.895585 90.887062 
L 193.540905 76.437648 
L 195.186225 90.887062 
L 196.831546 76.437648 
L 200.122186 76.437648 
L 203.412826 105.336477 
L 205.058147 76.437648 
L 211.639427 76.437648 
L 214.930068 105.336477 
L 218.220708 105.336477 
L 219.866028 76.437648 
L 221.511349 76.437648 
L 223.156669 90.887062 
L 224.801989 76.437648 
L 237.96455 76.437648 
L 239.609871 90.887062 
L 241.255191 76.437648 
L 242.900511 76.437648 
L 244.545831 90.887062 
L 246.191151 76.437648 
L 251.127112 76.437648 
L 252.772432 90.887062 
L 254.417752 76.437648 
L 262.644353 76.437648 
L 265.934994 105.336477 
L 275.806915 105.336477 
L 277.452235 76.437648 
L 279.097555 90.887062 
L 280.742876 76.437648 
L 282.388196 90.887062 
L 284.033516 76.437648 
L 287.324156 105.336477 
L 288.969477 76.437648 
L 292.260117 105.336477 
L 293.905437 105.336477 
L 295.550757 76.437648 
L 298.841398 105.336477 
L 300.486718 76.437648 
L 303.777358 105.336477 
L 305.422679 105.336477 
L 307.067999 76.437648 
L 310.358639 105.336477 
L 312.003959 76.437648 
L 315.2946 105.336477 
L 316.93992 76.437648 
L 323.521201 76.437648 
L 325.166521 90.887062 
L 326.811841 76.437648 
L 328.457161 76.437648 
L 331.747802 105.336477 
L 333.393122 76.437648 
L 348.201004 76.437648 
L 349.846324 90.887062 
L 351.491644 76.437648 
L 372.880807 76.437648 
L 376.171447 105.336477 
L 377.816767 76.437648 
L 379.462087 76.437648 
L 381.107408 90.887062 
L 382.752728 76.437648 
L 395.915289 76.437648 
L 397.56061 90.887062 
L 399.20593 76.437648 
L 400.85125 90.887062 
L 400.85125 90.887062 
" clip-path="url(#p1464837256)" style="fill: none; stroke: #b2b2b2; stroke-width: 0.8; stroke-linecap: square"/>
   </g>
   <g id="matplotlib.axis_1">
    <g id="xtick_1">
     <g id="line2d_2">
      <defs>
       <path id="m9088aae2b4" d="M 0 0 
L 0 3.5 
" style="stroke: #000000; stroke-width: 0.8"/>
      </defs>
      <g>
       <use xlink:href="#m9088aae2b4" x="65.20593" y="114.006125" style="stroke: #000000; stroke-width: 0.8"/>
      </g>
     </g>
     <g id="text_1">
      <!-- 0 -->
      <g transform="translate(62.66093 127.08425) scale(0.08 -0.08)">
       <defs>
        <path id="DejaVuSans-13" d="M 2034 4250 
Q 1547 4250 1301 3770 
Q 1056 3291 1056 2328 
Q 1056 1369 1301 889 
Q 1547 409 2034 409 
Q 2525 409 2770 889 
Q 3016 1369 3016 2328 
Q 3016 3291 2770 3770 
Q 2525 4250 2034 4250 
z
M 2034 4750 
Q 2819 4750 3233 4129 
Q 3647 3509 3647 2328 
Q 3647 1150 3233 529 
Q 2819 -91 2034 -91 
Q 1250 -91 836 529 
Q 422 1150 422 2328 
Q 422 3509 836 4129 
Q 1250 4750 2034 4750 
z
" transform="scale(0.015625)"/>
       </defs>
       <use xlink:href="#DejaVuSans-13"/>
      </g>
     </g>
    </g>
    <g id="xtick_2">
     <g id="line2d_3">
      <g>
       <use xlink:href="#m9088aae2b4" x="106.338935" y="114.006125" style="stroke: #000000; stroke-width: 0.8"/>
      </g>
     </g>
     <g id="text_2">
      <!-- 25 -->
      <g transform="translate(101.248935 127.08425) scale(0.08 -0.08)">
       <defs>
        <path id="DejaVuSans-15" d="M 1228 531 
L 3431 531 
L 3431 0 
L 469 0 
L 469 531 
Q 828 903 1448 1529 
Q 2069 2156 2228 2338 
Q 2531 2678 2651 2914 
Q 2772 3150 2772 3378 
Q 2772 3750 2511 3984 
Q 2250 4219 1831 4219 
Q 1534 4219 1204 4116 
Q 875 4013 500 3803 
L 500 4441 
Q 881 4594 1212 4672 
Q 1544 4750 1819 4750 
Q 2544 4750 2975 4387 
Q 3406 4025 3406 3419 
Q 3406 3131 3298 2873 
Q 3191 2616 2906 2266 
Q 2828 2175 2409 1742 
Q 1991 1309 1228 531 
z
" transform="scale(0.015625)"/>
        <path id="DejaVuSans-18" d="M 691 4666 
L 3169 4666 
L 3169 4134 
L 1269 4134 
L 1269 2991 
Q 1406 3038 1543 3061 
Q 1681 3084 1819 3084 
Q 2600 3084 3056 2656 
Q 3513 2228 3513 1497 
Q 3513 744 3044 326 
Q 2575 -91 1722 -91 
Q 1428 -91 1123 -41 
Q 819 9 494 109 
L 494 744 
Q 775 591 1075 516 
Q 1375 441 1709 441 
Q 2250 441 2565 725 
Q 2881 1009 2881 1497 
Q 2881 1984 2565 2268 
Q 2250 2553 1709 2553 
Q 1456 2553 1204 2497 
Q 953 2441 691 2322 
L 691 4666 
z
" transform="scale(0.015625)"/>
       </defs>
       <use xlink:href="#DejaVuSans-15"/>
       <use xlink:href="#DejaVuSans-18" transform="translate(63.625 0)"/>
      </g>
     </g>
    </g>
    <g id="xtick_3">
     <g id="line2d_4">
      <g>
       <use xlink:href="#m9088aae2b4" x="147.47194" y="114.006125" style="stroke: #000000; stroke-width: 0.8"/>
      </g>
     </g>
     <g id="text_3">
      <!-- 50 -->
      <g transform="translate(142.38194 127.08425) scale(0.08 -0.08)">
       <use xlink:href="#DejaVuSans-18"/>
       <use xlink:href="#DejaVuSans-13" transform="translate(63.625 0)"/>
      </g>
     </g>
    </g>
    <g id="xtick_4">
     <g id="line2d_5">
      <g>
       <use xlink:href="#m9088aae2b4" x="188.604945" y="114.006125" style="stroke: #000000; stroke-width: 0.8"/>
      </g>
     </g>
     <g id="text_4">
      <!-- 75 -->
      <g transform="translate(183.514945 127.08425) scale(0.08 -0.08)">
       <defs>
        <path id="DejaVuSans-1a" d="M 525 4666 
L 3525 4666 
L 3525 4397 
L 1831 0 
L 1172 0 
L 2766 4134 
L 525 4134 
L 525 4666 
z
" transform="scale(0.015625)"/>
       </defs>
       <use xlink:href="#DejaVuSans-1a"/>
       <use xlink:href="#DejaVuSans-18" transform="translate(63.625 0)"/>
      </g>
     </g>
    </g>
    <g id="xtick_5">
     <g id="line2d_6">
      <g>
       <use xlink:href="#m9088aae2b4" x="229.73795" y="114.006125" style="stroke: #000000; stroke-width: 0.8"/>
      </g>
     </g>
     <g id="text_5">
      <!-- 100 -->
      <g transform="translate(222.10295 127.08425) scale(0.08 -0.08)">
       <defs>
        <path id="DejaVuSans-14" d="M 794 531 
L 1825 531 
L 1825 4091 
L 703 3866 
L 703 4441 
L 1819 4666 
L 2450 4666 
L 2450 531 
L 3481 531 
L 3481 0 
L 794 0 
L 794 531 
z
" transform="scale(0.015625)"/>
       </defs>
       <use xlink:href="#DejaVuSans-14"/>
       <use xlink:href="#DejaVuSans-13" transform="translate(63.625 0)"/>
       <use xlink:href="#DejaVuSans-13" transform="translate(127.25 0)"/>
      </g>
     </g>
    </g>
    <g id="xtick_6">
     <g id="line2d_7">
      <g>
       <use xlink:href="#m9088aae2b4" x="270.870954" y="114.006125" style="stroke: #000000; stroke-width: 0.8"/>
      </g>
     </g>
     <g id="text_6">
      <!-- 125 -->
      <g transform="translate(263.235954 127.08425) scale(0.08 -0.08)">
       <use xlink:href="#DejaVuSans-14"/>
       <use xlink:href="#DejaVuSans-15" transform="translate(63.625 0)"/>
       <use xlink:href="#DejaVuSans-18" transform="translate(127.25 0)"/>
      </g>
     </g>
    </g>
    <g id="xtick_7">
     <g id="line2d_8">
      <g>
       <use xlink:href="#m9088aae2b4" x="312.003959" y="114.006125" style="stroke: #000000; stroke-width: 0.8"/>
      </g>
     </g>
     <g id="text_7">
      <!-- 150 -->
      <g transform="translate(304.368959 127.08425) scale(0.08 -0.08)">
       <use xlink:href="#DejaVuSans-14"/>
       <use xlink:href="#DejaVuSans-18" transform="translate(63.625 0)"/>
       <use xlink:href="#DejaVuSans-13" transform="translate(127.25 0)"/>
      </g>
     </g>
    </g>
    <g id="xtick_8">
     <g id="line2d_9">
      <g>
       <use xlink:href="#m9088aae2b4" x="353.136964" y="114.006125" style="stroke: #000000; stroke-width: 0.8"/>
      </g>
     </g>
     <g id="text_8">
      <!-- 175 -->
      <g transform="translate(345.501964 127.08425) scale(0.08 -0.08)">
       <use xlink:href="#DejaVuSans-14"/>
       <use xlink:href="#DejaVuSans-1a" transform="translate(63.625 0)"/>
       <use xlink:href="#DejaVuSans-18" transform="translate(127.25 0)"/>
      </g>
     </g>
    </g>
    <g id="xtick_9">
     <g id="line2d_10">
      <g>
       <use xlink:href="#m9088aae2b4" x="394.269969" y="114.006125" style="stroke: #000000; stroke-width: 0.8"/>
      </g>
     </g>
     <g id="text_9">
      <!-- 200 -->
      <g transform="translate(386.634969 127.08425) scale(0.08 -0.08)">
       <use xlink:href="#DejaVuSans-15"/>
       <use xlink:href="#DejaVuSans-13" transform="translate(63.625 0)"/>
       <use xlink:href="#DejaVuSans-13" transform="translate(127.25 0)"/>
      </g>
     </g>
    </g>
    <g id="text_10">
     <!-- entry number -->
     <g transform="translate(206.3925 139.084875) scale(0.08 -0.08)">
      <defs>
       <path id="DejaVuSans-48" d="M 3597 1894 
L 3597 1613 
L 953 1613 
Q 991 1019 1311 708 
Q 1631 397 2203 397 
Q 2534 397 2845 478 
Q 3156 559 3463 722 
L 3463 178 
Q 3153 47 2828 -22 
Q 2503 -91 2169 -91 
Q 1331 -91 842 396 
Q 353 884 353 1716 
Q 353 2575 817 3079 
Q 1281 3584 2069 3584 
Q 2775 3584 3186 3129 
Q 3597 2675 3597 1894 
z
M 3022 2063 
Q 3016 2534 2758 2815 
Q 2500 3097 2075 3097 
Q 1594 3097 1305 2825 
Q 1016 2553 972 2059 
L 3022 2063 
z
" transform="scale(0.015625)"/>
       <path id="DejaVuSans-51" d="M 3513 2113 
L 3513 0 
L 2938 0 
L 2938 2094 
Q 2938 2591 2744 2837 
Q 2550 3084 2163 3084 
Q 1697 3084 1428 2787 
Q 1159 2491 1159 1978 
L 1159 0 
L 581 0 
L 581 3500 
L 1159 3500 
L 1159 2956 
Q 1366 3272 1645 3428 
Q 1925 3584 2291 3584 
Q 2894 3584 3203 3211 
Q 3513 2838 3513 2113 
z
" transform="scale(0.015625)"/>
       <path id="DejaVuSans-57" d="M 1172 4494 
L 1172 3500 
L 2356 3500 
L 2356 3053 
L 1172 3053 
L 1172 1153 
Q 1172 725 1289 603 
Q 1406 481 1766 481 
L 2356 481 
L 2356 0 
L 1766 0 
Q 1100 0 847 248 
Q 594 497 594 1153 
L 594 3053 
L 172 3053 
L 172 3500 
L 594 3500 
L 594 4494 
L 1172 4494 
z
" transform="scale(0.015625)"/>
       <path id="DejaVuSans-55" d="M 2631 2963 
Q 2534 3019 2420 3045 
Q 2306 3072 2169 3072 
Q 1681 3072 1420 2755 
Q 1159 2438 1159 1844 
L 1159 0 
L 581 0 
L 581 3500 
L 1159 3500 
L 1159 2956 
Q 1341 3275 1631 3429 
Q 1922 3584 2338 3584 
Q 2397 3584 2469 3576 
Q 2541 3569 2628 3553 
L 2631 2963 
z
" transform="scale(0.015625)"/>
       <path id="DejaVuSans-5c" d="M 2059 -325 
Q 1816 -950 1584 -1140 
Q 1353 -1331 966 -1331 
L 506 -1331 
L 506 -850 
L 844 -850 
Q 1081 -850 1212 -737 
Q 1344 -625 1503 -206 
L 1606 56 
L 191 3500 
L 800 3500 
L 1894 763 
L 2988 3500 
L 3597 3500 
L 2059 -325 
z
" transform="scale(0.015625)"/>
       <path id="DejaVuSans-3" transform="scale(0.015625)"/>
       <path id="DejaVuSans-58" d="M 544 1381 
L 544 3500 
L 1119 3500 
L 1119 1403 
Q 1119 906 1312 657 
Q 1506 409 1894 409 
Q 2359 409 2629 706 
Q 2900 1003 2900 1516 
L 2900 3500 
L 3475 3500 
L 3475 0 
L 2900 0 
L 2900 538 
Q 2691 219 2414 64 
Q 2138 -91 1772 -91 
Q 1169 -91 856 284 
Q 544 659 544 1381 
z
M 1991 3584 
L 1991 3584 
z
" transform="scale(0.015625)"/>
       <path id="DejaVuSans-50" d="M 3328 2828 
Q 3544 3216 3844 3400 
Q 4144 3584 4550 3584 
Q 5097 3584 5394 3201 
Q 5691 2819 5691 2113 
L 5691 0 
L 5113 0 
L 5113 2094 
Q 5113 2597 4934 2840 
Q 4756 3084 4391 3084 
Q 3944 3084 3684 2787 
Q 3425 2491 3425 1978 
L 3425 0 
L 2847 0 
L 2847 2094 
Q 2847 2600 2669 2842 
Q 2491 3084 2119 3084 
Q 1678 3084 1418 2786 
Q 1159 2488 1159 1978 
L 1159 0 
L 581 0 
L 581 3500 
L 1159 3500 
L 1159 2956 
Q 1356 3278 1631 3431 
Q 1906 3584 2284 3584 
Q 2666 3584 2933 3390 
Q 3200 3197 3328 2828 
z
" transform="scale(0.015625)"/>
       <path id="DejaVuSans-45" d="M 3116 1747 
Q 3116 2381 2855 2742 
Q 2594 3103 2138 3103 
Q 1681 3103 1420 2742 
Q 1159 2381 1159 1747 
Q 1159 1113 1420 752 
Q 1681 391 2138 391 
Q 2594 391 2855 752 
Q 3116 1113 3116 1747 
z
M 1159 2969 
Q 1341 3281 1617 3432 
Q 1894 3584 2278 3584 
Q 2916 3584 3314 3078 
Q 3713 2572 3713 1747 
Q 3713 922 3314 415 
Q 2916 -91 2278 -91 
Q 1894 -91 1617 61 
Q 1341 213 1159 525 
L 1159 0 
L 581 0 
L 581 4863 
L 1159 4863 
L 1159 2969 
z
" transform="scale(0.015625)"/>
      </defs>
      <use xlink:href="#DejaVuSans-48"/>
      <use xlink:href="#DejaVuSans-51" transform="translate(61.53125 0)"/>
      <use xlink:href="#DejaVuSans-57" transform="translate(124.90625 0)"/>
      <use xlink:href="#DejaVuSans-55" transform="translate(164.109375 0)"/>
      <use xlink:href="#DejaVuSans-5c" transform="translate(205.21875 0)"/>
      <use xlink:href="#DejaVuSans-3" transform="translate(264.40625 0)"/>
      <use xlink:href="#DejaVuSans-51" transform="translate(296.1875 0)"/>
      <use xlink:href="#DejaVuSans-58" transform="translate(359.5625 0)"/>
      <use xlink:href="#DejaVuSans-50" transform="translate(422.9375 0)"/>
      <use xlink:href="#DejaVuSans-45" transform="translate(520.34375 0)"/>
      <use xlink:href="#DejaVuSans-48" transform="translate(583.828125 0)"/>
      <use xlink:href="#DejaVuSans-55" transform="translate(645.359375 0)"/>
     </g>
    </g>
   </g>
   <g id="matplotlib.axis_2">
    <g id="ytick_1">
     <g id="line2d_11">
      <defs>
       <path id="m7f1d715220" d="M 0 0 
L -3.5 0 
" style="stroke: #000000; stroke-width: 0.8"/>
      </defs>
      <g>
       <use xlink:href="#m7f1d715220" x="50.15125" y="105.336477" style="stroke: #000000; stroke-width: 0.8"/>
      </g>
     </g>
     <g id="text_11">
      <!-- playback -->
      <g transform="translate(7.2 103.975148) scale(0.08 -0.08)">
       <defs>
        <path id="DejaVuSans-53" d="M 1159 525 
L 1159 -1331 
L 581 -1331 
L 581 3500 
L 1159 3500 
L 1159 2969 
Q 1341 3281 1617 3432 
Q 1894 3584 2278 3584 
Q 2916 3584 3314 3078 
Q 3713 2572 3713 1747 
Q 3713 922 3314 415 
Q 2916 -91 2278 -91 
Q 1894 -91 1617 61 
Q 1341 213 1159 525 
z
M 3116 1747 
Q 3116 2381 2855 2742 
Q 2594 3103 2138 3103 
Q 1681 3103 1420 2742 
Q 1159 2381 1159 1747 
Q 1159 1113 1420 752 
Q 1681 391 2138 391 
Q 2594 391 2855 752 
Q 3116 1113 3116 1747 
z
" transform="scale(0.015625)"/>
        <path id="DejaVuSans-4f" d="M 603 4863 
L 1178 4863 
L 1178 0 
L 603 0 
L 603 4863 
z
" transform="scale(0.015625)"/>
        <path id="DejaVuSans-44" d="M 2194 1759 
Q 1497 1759 1228 1600 
Q 959 1441 959 1056 
Q 959 750 1161 570 
Q 1363 391 1709 391 
Q 2188 391 2477 730 
Q 2766 1069 2766 1631 
L 2766 1759 
L 2194 1759 
z
M 3341 1997 
L 3341 0 
L 2766 0 
L 2766 531 
Q 2569 213 2275 61 
Q 1981 -91 1556 -91 
Q 1019 -91 701 211 
Q 384 513 384 1019 
Q 384 1609 779 1909 
Q 1175 2209 1959 2209 
L 2766 2209 
L 2766 2266 
Q 2766 2663 2505 2880 
Q 2244 3097 1772 3097 
Q 1472 3097 1187 3025 
Q 903 2953 641 2809 
L 641 3341 
Q 956 3463 1253 3523 
Q 1550 3584 1831 3584 
Q 2591 3584 2966 3190 
Q 3341 2797 3341 1997 
z
" transform="scale(0.015625)"/>
        <path id="DejaVuSans-46" d="M 3122 3366 
L 3122 2828 
Q 2878 2963 2633 3030 
Q 2388 3097 2138 3097 
Q 1578 3097 1268 2742 
Q 959 2388 959 1747 
Q 959 1106 1268 751 
Q 1578 397 2138 397 
Q 2388 397 2633 464 
Q 2878 531 3122 666 
L 3122 134 
Q 2881 22 2623 -34 
Q 2366 -91 2075 -91 
Q 1284 -91 818 406 
Q 353 903 353 1747 
Q 353 2603 823 3093 
Q 1294 3584 2113 3584 
Q 2378 3584 2631 3529 
Q 2884 3475 3122 3366 
z
" transform="scale(0.015625)"/>
        <path id="DejaVuSans-4e" d="M 581 4863 
L 1159 4863 
L 1159 1991 
L 2875 3500 
L 3609 3500 
L 1753 1863 
L 3688 0 
L 2938 0 
L 1159 1709 
L 1159 0 
L 581 0 
L 581 4863 
z
" transform="scale(0.015625)"/>
       </defs>
       <use xlink:href="#DejaVuSans-53"/>
       <use xlink:href="#DejaVuSans-4f" transform="translate(63.484375 0)"/>
       <use xlink:href="#DejaVuSans-44" transform="translate(91.265625 0)"/>
       <use xlink:href="#DejaVuSans-5c" transform="translate(152.546875 0)"/>
       <use xlink:href="#DejaVuSans-45" transform="translate(211.734375 0)"/>
       <use xlink:href="#DejaVuSans-44" transform="translate(275.21875 0)"/>
       <use xlink:href="#DejaVuSans-46" transform="translate(336.5 0)"/>
       <use xlink:href="#DejaVuSans-4e" transform="translate(391.484375 0)"/>
      </g>
      <!-- click -->
      <g transform="translate(25.27625 113.577336) scale(0.08 -0.08)">
       <defs>
        <path id="DejaVuSans-4c" d="M 603 3500 
L 1178 3500 
L 1178 0 
L 603 0 
L 603 3500 
z
M 603 4863 
L 1178 4863 
L 1178 4134 
L 603 4134 
L 603 4863 
z
" transform="scale(0.015625)"/>
       </defs>
       <use xlink:href="#DejaVuSans-46"/>
       <use xlink:href="#DejaVuSans-4f" transform="translate(54.984375 0)"/>
       <use xlink:href="#DejaVuSans-4c" transform="translate(82.765625 0)"/>
       <use xlink:href="#DejaVuSans-46" transform="translate(110.546875 0)"/>
       <use xlink:href="#DejaVuSans-4e" transform="translate(165.53125 0)"/>
      </g>
     </g>
    </g>
    <g id="ytick_2">
     <g id="line2d_12">
      <g>
       <use xlink:href="#m7f1d715220" x="50.15125" y="90.887062" style="stroke: #000000; stroke-width: 0.8"/>
      </g>
     </g>
     <g id="text_12">
      <!-- result -->
      <g transform="translate(20.52 89.525734) scale(0.08 -0.08)">
       <defs>
        <path id="DejaVuSans-56" d="M 2834 3397 
L 2834 2853 
Q 2591 2978 2328 3040 
Q 2066 3103 1784 3103 
Q 1356 3103 1142 2972 
Q 928 2841 928 2578 
Q 928 2378 1081 2264 
Q 1234 2150 1697 2047 
L 1894 2003 
Q 2506 1872 2764 1633 
Q 3022 1394 3022 966 
Q 3022 478 2636 193 
Q 2250 -91 1575 -91 
Q 1294 -91 989 -36 
Q 684 19 347 128 
L 347 722 
Q 666 556 975 473 
Q 1284 391 1588 391 
Q 1994 391 2212 530 
Q 2431 669 2431 922 
Q 2431 1156 2273 1281 
Q 2116 1406 1581 1522 
L 1381 1569 
Q 847 1681 609 1914 
Q 372 2147 372 2553 
Q 372 3047 722 3315 
Q 1072 3584 1716 3584 
Q 2034 3584 2315 3537 
Q 2597 3491 2834 3397 
z
" transform="scale(0.015625)"/>
       </defs>
       <use xlink:href="#DejaVuSans-55"/>
       <use xlink:href="#DejaVuSans-48" transform="translate(38.90625 0)"/>
       <use xlink:href="#DejaVuSans-56" transform="translate(100.4375 0)"/>
       <use xlink:href="#DejaVuSans-58" transform="translate(152.53125 0)"/>
       <use xlink:href="#DejaVuSans-4f" transform="translate(215.90625 0)"/>
       <use xlink:href="#DejaVuSans-57" transform="translate(243.6875 0)"/>
      </g>
      <!-- click -->
      <g transform="translate(25.27625 99.127922) scale(0.08 -0.08)">
       <use xlink:href="#DejaVuSans-46"/>
       <use xlink:href="#DejaVuSans-4f" transform="translate(54.984375 0)"/>
       <use xlink:href="#DejaVuSans-4c" transform="translate(82.765625 0)"/>
       <use xlink:href="#DejaVuSans-46" transform="translate(110.546875 0)"/>
       <use xlink:href="#DejaVuSans-4e" transform="translate(165.53125 0)"/>
      </g>
     </g>
    </g>
    <g id="ytick_3">
     <g id="line2d_13">
      <g>
       <use xlink:href="#m7f1d715220" x="50.15125" y="76.437648" style="stroke: #000000; stroke-width: 0.8"/>
      </g>
     </g>
     <g id="text_13">
      <!-- query -->
      <g transform="translate(20.05625 79.476711) scale(0.08 -0.08)">
       <defs>
        <path id="DejaVuSans-54" d="M 947 1747 
Q 947 1113 1208 752 
Q 1469 391 1925 391 
Q 2381 391 2643 752 
Q 2906 1113 2906 1747 
Q 2906 2381 2643 2742 
Q 2381 3103 1925 3103 
Q 1469 3103 1208 2742 
Q 947 2381 947 1747 
z
M 2906 525 
Q 2725 213 2448 61 
Q 2172 -91 1784 -91 
Q 1150 -91 751 415 
Q 353 922 353 1747 
Q 353 2572 751 3078 
Q 1150 3584 1784 3584 
Q 2172 3584 2448 3432 
Q 2725 3281 2906 2969 
L 2906 3500 
L 3481 3500 
L 3481 -1331 
L 2906 -1331 
L 2906 525 
z
" transform="scale(0.015625)"/>
       </defs>
       <use xlink:href="#DejaVuSans-54"/>
       <use xlink:href="#DejaVuSans-58" transform="translate(63.484375 0)"/>
       <use xlink:href="#DejaVuSans-48" transform="translate(126.859375 0)"/>
       <use xlink:href="#DejaVuSans-55" transform="translate(188.390625 0)"/>
       <use xlink:href="#DejaVuSans-5c" transform="translate(229.5 0)"/>
      </g>
     </g>
    </g>
   </g>
   <g id="PathCollection_1">
    <defs>
     <path id="mc25c9f3433" d="M 0 2.345208 
C 0.621956 2.345208 1.218523 2.098102 1.658312 1.658312 
C 2.098102 1.218523 2.345208 0.621956 2.345208 0 
C 2.345208 -0.621956 2.098102 -1.218523 1.658312 -1.658312 
C 1.218523 -2.098102 0.621956 -2.345208 0 -2.345208 
C -0.621956 -2.345208 -1.218523 -2.098102 -1.658312 -1.658312 
C -2.098102 -1.218523 -2.345208 -0.621956 -2.345208 0 
C -2.345208 0.621956 -2.098102 1.218523 -1.658312 1.658312 
C -1.218523 2.098102 -0.621956 2.345208 0 2.345208 
z
" style="stroke: #0072b2"/>
    </defs>
    <g clip-path="url(#p1464837256)">
     <use xlink:href="#mc25c9f3433" x="66.85125" y="76.437648" style="fill: #0072b2; stroke: #0072b2"/>
     <use xlink:href="#mc25c9f3433" x="68.49657" y="76.437648" style="fill: #0072b2; stroke: #0072b2"/>
     <use xlink:href="#mc25c9f3433" x="70.14189" y="76.437648" style="fill: #0072b2; stroke: #0072b2"/>
     <use xlink:href="#mc25c9f3433" x="71.787211" y="76.437648" style="fill: #0072b2; stroke: #0072b2"/>
     <use xlink:href="#mc25c9f3433" x="73.432531" y="76.437648" style="fill: #0072b2; stroke: #0072b2"/>
     <use xlink:href="#mc25c9f3433" x="75.077851" y="76.437648" style="fill: #0072b2; stroke: #0072b2"/>
     <use xlink:href="#mc25c9f3433" x="76.723171" y="76.437648" style="fill: #0072b2; stroke: #0072b2"/>
     <use xlink:href="#mc25c9f3433" x="78.368491" y="76.437648" style="fill: #0072b2; stroke: #0072b2"/>
     <use xlink:href="#mc25c9f3433" x="80.013812" y="76.437648" style="fill: #0072b2; stroke: #0072b2"/>
     <use xlink:href="#mc25c9f3433" x="81.659132" y="76.437648" style="fill: #0072b2; stroke: #0072b2"/>
     <use xlink:href="#mc25c9f3433" x="83.304452" y="76.437648" style="fill: #0072b2; stroke: #0072b2"/>
     <use xlink:href="#mc25c9f3433" x="84.949772" y="76.437648" style="fill: #0072b2; stroke: #0072b2"/>
     <use xlink:href="#mc25c9f3433" x="86.595092" y="76.437648" style="fill: #0072b2; stroke: #0072b2"/>
     <use xlink:href="#mc25c9f3433" x="88.240413" y="76.437648" style="fill: #0072b2; stroke: #0072b2"/>
     <use xlink:href="#mc25c9f3433" x="93.176373" y="76.437648" style="fill: #0072b2; stroke: #0072b2"/>
     <use xlink:href="#mc25c9f3433" x="94.821693" y="76.437648" style="fill: #0072b2; stroke: #0072b2"/>
     <use xlink:href="#mc25c9f3433" x="96.467014" y="76.437648" style="fill: #0072b2; stroke: #0072b2"/>
     <use xlink:href="#mc25c9f3433" x="98.112334" y="76.437648" style="fill: #0072b2; stroke: #0072b2"/>
     <use xlink:href="#mc25c9f3433" x="99.757654" y="76.437648" style="fill: #0072b2; stroke: #0072b2"/>
     <use xlink:href="#mc25c9f3433" x="101.402974" y="76.437648" style="fill: #0072b2; stroke: #0072b2"/>
     <use xlink:href="#mc25c9f3433" x="104.693615" y="76.437648" style="fill: #0072b2; stroke: #0072b2"/>
     <use xlink:href="#mc25c9f3433" x="106.338935" y="76.437648" style="fill: #0072b2; stroke: #0072b2"/>
     <use xlink:href="#mc25c9f3433" x="107.984255" y="76.437648" style="fill: #0072b2; stroke: #0072b2"/>
     <use xlink:href="#mc25c9f3433" x="109.629575" y="76.437648" style="fill: #0072b2; stroke: #0072b2"/>
     <use xlink:href="#mc25c9f3433" x="111.274895" y="76.437648" style="fill: #0072b2; stroke: #0072b2"/>
     <use xlink:href="#mc25c9f3433" x="112.920216" y="76.437648" style="fill: #0072b2; stroke: #0072b2"/>
     <use xlink:href="#mc25c9f3433" x="119.501496" y="76.437648" style="fill: #0072b2; stroke: #0072b2"/>
     <use xlink:href="#mc25c9f3433" x="121.146817" y="76.437648" style="fill: #0072b2; stroke: #0072b2"/>
     <use xlink:href="#mc25c9f3433" x="131.018738" y="76.437648" style="fill: #0072b2; stroke: #0072b2"/>
     <use xlink:href="#mc25c9f3433" x="132.664058" y="76.437648" style="fill: #0072b2; stroke: #0072b2"/>
     <use xlink:href="#mc25c9f3433" x="139.245339" y="76.437648" style="fill: #0072b2; stroke: #0072b2"/>
     <use xlink:href="#mc25c9f3433" x="140.890659" y="76.437648" style="fill: #0072b2; stroke: #0072b2"/>
     <use xlink:href="#mc25c9f3433" x="144.181299" y="76.437648" style="fill: #0072b2; stroke: #0072b2"/>
     <use xlink:href="#mc25c9f3433" x="145.826619" y="76.437648" style="fill: #0072b2; stroke: #0072b2"/>
     <use xlink:href="#mc25c9f3433" x="149.11726" y="76.437648" style="fill: #0072b2; stroke: #0072b2"/>
     <use xlink:href="#mc25c9f3433" x="150.76258" y="76.437648" style="fill: #0072b2; stroke: #0072b2"/>
     <use xlink:href="#mc25c9f3433" x="157.343861" y="76.437648" style="fill: #0072b2; stroke: #0072b2"/>
     <use xlink:href="#mc25c9f3433" x="158.989181" y="76.437648" style="fill: #0072b2; stroke: #0072b2"/>
     <use xlink:href="#mc25c9f3433" x="162.279821" y="76.437648" style="fill: #0072b2; stroke: #0072b2"/>
     <use xlink:href="#mc25c9f3433" x="163.925142" y="76.437648" style="fill: #0072b2; stroke: #0072b2"/>
     <use xlink:href="#mc25c9f3433" x="167.215782" y="76.437648" style="fill: #0072b2; stroke: #0072b2"/>
     <use xlink:href="#mc25c9f3433" x="168.861102" y="76.437648" style="fill: #0072b2; stroke: #0072b2"/>
     <use xlink:href="#mc25c9f3433" x="172.151743" y="76.437648" style="fill: #0072b2; stroke: #0072b2"/>
     <use xlink:href="#mc25c9f3433" x="173.797063" y="76.437648" style="fill: #0072b2; stroke: #0072b2"/>
     <use xlink:href="#mc25c9f3433" x="178.733023" y="76.437648" style="fill: #0072b2; stroke: #0072b2"/>
     <use xlink:href="#mc25c9f3433" x="180.378344" y="76.437648" style="fill: #0072b2; stroke: #0072b2"/>
     <use xlink:href="#mc25c9f3433" x="182.023664" y="76.437648" style="fill: #0072b2; stroke: #0072b2"/>
     <use xlink:href="#mc25c9f3433" x="183.668984" y="76.437648" style="fill: #0072b2; stroke: #0072b2"/>
     <use xlink:href="#mc25c9f3433" x="185.314304" y="76.437648" style="fill: #0072b2; stroke: #0072b2"/>
     <use xlink:href="#mc25c9f3433" x="188.604945" y="76.437648" style="fill: #0072b2; stroke: #0072b2"/>
     <use xlink:href="#mc25c9f3433" x="190.250265" y="76.437648" style="fill: #0072b2; stroke: #0072b2"/>
     <use xlink:href="#mc25c9f3433" x="193.540905" y="76.437648" style="fill: #0072b2; stroke: #0072b2"/>
     <use xlink:href="#mc25c9f3433" x="196.831546" y="76.437648" style="fill: #0072b2; stroke: #0072b2"/>
     <use xlink:href="#mc25c9f3433" x="198.476866" y="76.437648" style="fill: #0072b2; stroke: #0072b2"/>
     <use xlink:href="#mc25c9f3433" x="200.122186" y="76.437648" style="fill: #0072b2; stroke: #0072b2"/>
     <use xlink:href="#mc25c9f3433" x="205.058147" y="76.437648" style="fill: #0072b2; stroke: #0072b2"/>
     <use xlink:href="#mc25c9f3433" x="206.703467" y="76.437648" style="fill: #0072b2; stroke: #0072b2"/>
     <use xlink:href="#mc25c9f3433" x="208.348787" y="76.437648" style="fill: #0072b2; stroke: #0072b2"/>
     <use xlink:href="#mc25c9f3433" x="209.994107" y="76.437648" style="fill: #0072b2; stroke: #0072b2"/>
     <use xlink:href="#mc25c9f3433" x="211.639427" y="76.437648" style="fill: #0072b2; stroke: #0072b2"/>
     <use xlink:href="#mc25c9f3433" x="219.866028" y="76.437648" style="fill: #0072b2; stroke: #0072b2"/>
     <use xlink:href="#mc25c9f3433" x="221.511349" y="76.437648" style="fill: #0072b2; stroke: #0072b2"/>
     <use xlink:href="#mc25c9f3433" x="224.801989" y="76.437648" style="fill: #0072b2; stroke: #0072b2"/>
     <use xlink:href="#mc25c9f3433" x="226.447309" y="76.437648" style="fill: #0072b2; stroke: #0072b2"/>
     <use xlink:href="#mc25c9f3433" x="228.092629" y="76.437648" style="fill: #0072b2; stroke: #0072b2"/>
     <use xlink:href="#mc25c9f3433" x="229.73795" y="76.437648" style="fill: #0072b2; stroke: #0072b2"/>
     <use xlink:href="#mc25c9f3433" x="231.38327" y="76.437648" style="fill: #0072b2; stroke: #0072b2"/>
     <use xlink:href="#mc25c9f3433" x="233.02859" y="76.437648" style="fill: #0072b2; stroke: #0072b2"/>
     <use xlink:href="#mc25c9f3433" x="234.67391" y="76.437648" style="fill: #0072b2; stroke: #0072b2"/>
     <use xlink:href="#mc25c9f3433" x="236.31923" y="76.437648" style="fill: #0072b2; stroke: #0072b2"/>
     <use xlink:href="#mc25c9f3433" x="237.96455" y="76.437648" style="fill: #0072b2; stroke: #0072b2"/>
     <use xlink:href="#mc25c9f3433" x="241.255191" y="76.437648" style="fill: #0072b2; stroke: #0072b2"/>
     <use xlink:href="#mc25c9f3433" x="242.900511" y="76.437648" style="fill: #0072b2; stroke: #0072b2"/>
     <use xlink:href="#mc25c9f3433" x="246.191151" y="76.437648" style="fill: #0072b2; stroke: #0072b2"/>
     <use xlink:href="#mc25c9f3433" x="247.836472" y="76.437648" style="fill: #0072b2; stroke: #0072b2"/>
     <use xlink:href="#mc25c9f3433" x="249.481792" y="76.437648" style="fill: #0072b2; stroke: #0072b2"/>
     <use xlink:href="#mc25c9f3433" x="251.127112" y="76.437648" style="fill: #0072b2; stroke: #0072b2"/>
     <use xlink:href="#mc25c9f3433" x="254.417752" y="76.437648" style="fill: #0072b2; stroke: #0072b2"/>
     <use xlink:href="#mc25c9f3433" x="256.063073" y="76.437648" style="fill: #0072b2; stroke: #0072b2"/>
     <use xlink:href="#mc25c9f3433" x="257.708393" y="76.437648" style="fill: #0072b2; stroke: #0072b2"/>
     <use xlink:href="#mc25c9f3433" x="259.353713" y="76.437648" style="fill: #0072b2; stroke: #0072b2"/>
     <use xlink:href="#mc25c9f3433" x="260.999033" y="76.437648" style="fill: #0072b2; stroke: #0072b2"/>
     <use xlink:href="#mc25c9f3433" x="262.644353" y="76.437648" style="fill: #0072b2; stroke: #0072b2"/>
     <use xlink:href="#mc25c9f3433" x="277.452235" y="76.437648" style="fill: #0072b2; stroke: #0072b2"/>
     <use xlink:href="#mc25c9f3433" x="280.742876" y="76.437648" style="fill: #0072b2; stroke: #0072b2"/>
     <use xlink:href="#mc25c9f3433" x="284.033516" y="76.437648" style="fill: #0072b2; stroke: #0072b2"/>
     <use xlink:href="#mc25c9f3433" x="288.969477" y="76.437648" style="fill: #0072b2; stroke: #0072b2"/>
     <use xlink:href="#mc25c9f3433" x="295.550757" y="76.437648" style="fill: #0072b2; stroke: #0072b2"/>
     <use xlink:href="#mc25c9f3433" x="300.486718" y="76.437648" style="fill: #0072b2; stroke: #0072b2"/>
     <use xlink:href="#mc25c9f3433" x="307.067999" y="76.437648" style="fill: #0072b2; stroke: #0072b2"/>
     <use xlink:href="#mc25c9f3433" x="312.003959" y="76.437648" style="fill: #0072b2; stroke: #0072b2"/>
     <use xlink:href="#mc25c9f3433" x="316.93992" y="76.437648" style="fill: #0072b2; stroke: #0072b2"/>
     <use xlink:href="#mc25c9f3433" x="318.58524" y="76.437648" style="fill: #0072b2; stroke: #0072b2"/>
     <use xlink:href="#mc25c9f3433" x="320.23056" y="76.437648" style="fill: #0072b2; stroke: #0072b2"/>
     <use xlink:href="#mc25c9f3433" x="321.875881" y="76.437648" style="fill: #0072b2; stroke: #0072b2"/>
     <use xlink:href="#mc25c9f3433" x="323.521201" y="76.437648" style="fill: #0072b2; stroke: #0072b2"/>
     <use xlink:href="#mc25c9f3433" x="326.811841" y="76.437648" style="fill: #0072b2; stroke: #0072b2"/>
     <use xlink:href="#mc25c9f3433" x="328.457161" y="76.437648" style="fill: #0072b2; stroke: #0072b2"/>
     <use xlink:href="#mc25c9f3433" x="333.393122" y="76.437648" style="fill: #0072b2; stroke: #0072b2"/>
     <use xlink:href="#mc25c9f3433" x="335.038442" y="76.437648" style="fill: #0072b2; stroke: #0072b2"/>
     <use xlink:href="#mc25c9f3433" x="336.683762" y="76.437648" style="fill: #0072b2; stroke: #0072b2"/>
     <use xlink:href="#mc25c9f3433" x="338.329083" y="76.437648" style="fill: #0072b2; stroke: #0072b2"/>
     <use xlink:href="#mc25c9f3433" x="339.974403" y="76.437648" style="fill: #0072b2; stroke: #0072b2"/>
     <use xlink:href="#mc25c9f3433" x="341.619723" y="76.437648" style="fill: #0072b2; stroke: #0072b2"/>
     <use xlink:href="#mc25c9f3433" x="343.265043" y="76.437648" style="fill: #0072b2; stroke: #0072b2"/>
     <use xlink:href="#mc25c9f3433" x="344.910363" y="76.437648" style="fill: #0072b2; stroke: #0072b2"/>
     <use xlink:href="#mc25c9f3433" x="346.555683" y="76.437648" style="fill: #0072b2; stroke: #0072b2"/>
     <use xlink:href="#mc25c9f3433" x="348.201004" y="76.437648" style="fill: #0072b2; stroke: #0072b2"/>
     <use xlink:href="#mc25c9f3433" x="351.491644" y="76.437648" style="fill: #0072b2; stroke: #0072b2"/>
     <use xlink:href="#mc25c9f3433" x="353.136964" y="76.437648" style="fill: #0072b2; stroke: #0072b2"/>
     <use xlink:href="#mc25c9f3433" x="354.782284" y="76.437648" style="fill: #0072b2; stroke: #0072b2"/>
     <use xlink:href="#mc25c9f3433" x="356.427605" y="76.437648" style="fill: #0072b2; stroke: #0072b2"/>
     <use xlink:href="#mc25c9f3433" x="358.072925" y="76.437648" style="fill: #0072b2; stroke: #0072b2"/>
     <use xlink:href="#mc25c9f3433" x="359.718245" y="76.437648" style="fill: #0072b2; stroke: #0072b2"/>
     <use xlink:href="#mc25c9f3433" x="361.363565" y="76.437648" style="fill: #0072b2; stroke: #0072b2"/>
     <use xlink:href="#mc25c9f3433" x="363.008885" y="76.437648" style="fill: #0072b2; stroke: #0072b2"/>
     <use xlink:href="#mc25c9f3433" x="364.654206" y="76.437648" style="fill: #0072b2; stroke: #0072b2"/>
     <use xlink:href="#mc25c9f3433" x="366.299526" y="76.437648" style="fill: #0072b2; stroke: #0072b2"/>
     <use xlink:href="#mc25c9f3433" x="367.944846" y="76.437648" style="fill: #0072b2; stroke: #0072b2"/>
     <use xlink:href="#mc25c9f3433" x="369.590166" y="76.437648" style="fill: #0072b2; stroke: #0072b2"/>
     <use xlink:href="#mc25c9f3433" x="371.235486" y="76.437648" style="fill: #0072b2; stroke: #0072b2"/>
     <use xlink:href="#mc25c9f3433" x="372.880807" y="76.437648" style="fill: #0072b2; stroke: #0072b2"/>
     <use xlink:href="#mc25c9f3433" x="377.816767" y="76.437648" style="fill: #0072b2; stroke: #0072b2"/>
     <use xlink:href="#mc25c9f3433" x="379.462087" y="76.437648" style="fill: #0072b2; stroke: #0072b2"/>
     <use xlink:href="#mc25c9f3433" x="382.752728" y="76.437648" style="fill: #0072b2; stroke: #0072b2"/>
     <use xlink:href="#mc25c9f3433" x="384.398048" y="76.437648" style="fill: #0072b2; stroke: #0072b2"/>
     <use xlink:href="#mc25c9f3433" x="386.043368" y="76.437648" style="fill: #0072b2; stroke: #0072b2"/>
     <use xlink:href="#mc25c9f3433" x="387.688688" y="76.437648" style="fill: #0072b2; stroke: #0072b2"/>
     <use xlink:href="#mc25c9f3433" x="389.334009" y="76.437648" style="fill: #0072b2; stroke: #0072b2"/>
     <use xlink:href="#mc25c9f3433" x="390.979329" y="76.437648" style="fill: #0072b2; stroke: #0072b2"/>
     <use xlink:href="#mc25c9f3433" x="392.624649" y="76.437648" style="fill: #0072b2; stroke: #0072b2"/>
     <use xlink:href="#mc25c9f3433" x="394.269969" y="76.437648" style="fill: #0072b2; stroke: #0072b2"/>
     <use xlink:href="#mc25c9f3433" x="395.915289" y="76.437648" style="fill: #0072b2; stroke: #0072b2"/>
     <use xlink:href="#mc25c9f3433" x="399.20593" y="76.437648" style="fill: #0072b2; stroke: #0072b2"/>
    </g>
   </g>
   <g id="PathCollection_2">
    <defs>
     <path id="me2ea10011c" d="M 0 2.345208 
C 0.621956 2.345208 1.218523 2.098102 1.658312 1.658312 
C 2.098102 1.218523 2.345208 0.621956 2.345208 0 
C 2.345208 -0.621956 2.098102 -1.218523 1.658312 -1.658312 
C 1.218523 -2.098102 0.621956 -2.345208 0 -2.345208 
C -0.621956 -2.345208 -1.218523 -2.098102 -1.658312 -1.658312 
C -2.098102 -1.218523 -2.345208 -0.621956 -2.345208 0 
C -2.345208 0.621956 -2.098102 1.218523 -1.658312 1.658312 
C -1.218523 2.098102 -0.621956 2.345208 0 2.345208 
z
" style="stroke: #d55e00"/>
    </defs>
    <g clip-path="url(#p1464837256)">
     <use xlink:href="#me2ea10011c" x="89.885733" y="90.887062" style="fill: #d55e00; stroke: #d55e00"/>
     <use xlink:href="#me2ea10011c" x="103.048294" y="90.887062" style="fill: #d55e00; stroke: #d55e00"/>
     <use xlink:href="#me2ea10011c" x="114.565536" y="90.887062" style="fill: #d55e00; stroke: #d55e00"/>
     <use xlink:href="#me2ea10011c" x="122.792137" y="90.887062" style="fill: #d55e00; stroke: #d55e00"/>
     <use xlink:href="#me2ea10011c" x="134.309378" y="90.887062" style="fill: #d55e00; stroke: #d55e00"/>
     <use xlink:href="#me2ea10011c" x="142.535979" y="90.887062" style="fill: #d55e00; stroke: #d55e00"/>
     <use xlink:href="#me2ea10011c" x="147.47194" y="90.887062" style="fill: #d55e00; stroke: #d55e00"/>
     <use xlink:href="#me2ea10011c" x="152.4079" y="90.887062" style="fill: #d55e00; stroke: #d55e00"/>
     <use xlink:href="#me2ea10011c" x="160.634501" y="90.887062" style="fill: #d55e00; stroke: #d55e00"/>
     <use xlink:href="#me2ea10011c" x="165.570462" y="90.887062" style="fill: #d55e00; stroke: #d55e00"/>
     <use xlink:href="#me2ea10011c" x="170.506422" y="90.887062" style="fill: #d55e00; stroke: #d55e00"/>
     <use xlink:href="#me2ea10011c" x="175.442383" y="90.887062" style="fill: #d55e00; stroke: #d55e00"/>
     <use xlink:href="#me2ea10011c" x="186.959624" y="90.887062" style="fill: #d55e00; stroke: #d55e00"/>
     <use xlink:href="#me2ea10011c" x="191.895585" y="90.887062" style="fill: #d55e00; stroke: #d55e00"/>
     <use xlink:href="#me2ea10011c" x="195.186225" y="90.887062" style="fill: #d55e00; stroke: #d55e00"/>
     <use xlink:href="#me2ea10011c" x="201.767506" y="90.887062" style="fill: #d55e00; stroke: #d55e00"/>
     <use xlink:href="#me2ea10011c" x="213.284748" y="90.887062" style="fill: #d55e00; stroke: #d55e00"/>
     <use xlink:href="#me2ea10011c" x="223.156669" y="90.887062" style="fill: #d55e00; stroke: #d55e00"/>
     <use xlink:href="#me2ea10011c" x="239.609871" y="90.887062" style="fill: #d55e00; stroke: #d55e00"/>
     <use xlink:href="#me2ea10011c" x="244.545831" y="90.887062" style="fill: #d55e00; stroke: #d55e00"/>
     <use xlink:href="#me2ea10011c" x="252.772432" y="90.887062" style="fill: #d55e00; stroke: #d55e00"/>
     <use xlink:href="#me2ea10011c" x="264.289674" y="90.887062" style="fill: #d55e00; stroke: #d55e00"/>
     <use xlink:href="#me2ea10011c" x="279.097555" y="90.887062" style="fill: #d55e00; stroke: #d55e00"/>
     <use xlink:href="#me2ea10011c" x="282.388196" y="90.887062" style="fill: #d55e00; stroke: #d55e00"/>
     <use xlink:href="#me2ea10011c" x="285.678836" y="90.887062" style="fill: #d55e00; stroke: #d55e00"/>
     <use xlink:href="#me2ea10011c" x="290.614797" y="90.887062" style="fill: #d55e00; stroke: #d55e00"/>
     <use xlink:href="#me2ea10011c" x="297.196078" y="90.887062" style="fill: #d55e00; stroke: #d55e00"/>
     <use xlink:href="#me2ea10011c" x="302.132038" y="90.887062" style="fill: #d55e00; stroke: #d55e00"/>
     <use xlink:href="#me2ea10011c" x="308.713319" y="90.887062" style="fill: #d55e00; stroke: #d55e00"/>
     <use xlink:href="#me2ea10011c" x="313.64928" y="90.887062" style="fill: #d55e00; stroke: #d55e00"/>
     <use xlink:href="#me2ea10011c" x="325.166521" y="90.887062" style="fill: #d55e00; stroke: #d55e00"/>
     <use xlink:href="#me2ea10011c" x="330.102482" y="90.887062" style="fill: #d55e00; stroke: #d55e00"/>
     <use xlink:href="#me2ea10011c" x="349.846324" y="90.887062" style="fill: #d55e00; stroke: #d55e00"/>
     <use xlink:href="#me2ea10011c" x="374.526127" y="90.887062" style="fill: #d55e00; stroke: #d55e00"/>
     <use xlink:href="#me2ea10011c" x="381.107408" y="90.887062" style="fill: #d55e00; stroke: #d55e00"/>
     <use xlink:href="#me2ea10011c" x="397.56061" y="90.887062" style="fill: #d55e00; stroke: #d55e00"/>
     <use xlink:href="#me2ea10011c" x="400.85125" y="90.887062" style="fill: #d55e00; stroke: #d55e00"/>
    </g>
   </g>
   <g id="PathCollection_3">
    <defs>
     <path id="m72a5fd2249" d="M 0 2.345208 
C 0.621956 2.345208 1.218523 2.098102 1.658312 1.658312 
C 2.098102 1.218523 2.345208 0.621956 2.345208 0 
C 2.345208 -0.621956 2.098102 -1.218523 1.658312 -1.658312 
C 1.218523 -2.098102 0.621956 -2.345208 0 -2.345208 
C -0.621956 -2.345208 -1.218523 -2.098102 -1.658312 -1.658312 
C -2.098102 -1.218523 -2.345208 -0.621956 -2.345208 0 
C -2.345208 0.621956 -2.098102 1.218523 -1.658312 1.658312 
C -1.218523 2.098102 -0.621956 2.345208 0 2.345208 
z
" style="stroke: #009e73"/>
    </defs>
    <g clip-path="url(#p1464837256)">
     <use xlink:href="#m72a5fd2249" x="91.531053" y="105.336477" style="fill: #009e73; stroke: #009e73"/>
     <use xlink:href="#m72a5fd2249" x="116.210856" y="105.336477" style="fill: #009e73; stroke: #009e73"/>
     <use xlink:href="#m72a5fd2249" x="117.856176" y="105.336477" style="fill: #009e73; stroke: #009e73"/>
     <use xlink:href="#m72a5fd2249" x="124.437457" y="105.336477" style="fill: #009e73; stroke: #009e73"/>
     <use xlink:href="#m72a5fd2249" x="126.082777" y="105.336477" style="fill: #009e73; stroke: #009e73"/>
     <use xlink:href="#m72a5fd2249" x="127.728097" y="105.336477" style="fill: #009e73; stroke: #009e73"/>
     <use xlink:href="#m72a5fd2249" x="129.373417" y="105.336477" style="fill: #009e73; stroke: #009e73"/>
     <use xlink:href="#m72a5fd2249" x="135.954698" y="105.336477" style="fill: #009e73; stroke: #009e73"/>
     <use xlink:href="#m72a5fd2249" x="137.600018" y="105.336477" style="fill: #009e73; stroke: #009e73"/>
     <use xlink:href="#m72a5fd2249" x="154.05322" y="105.336477" style="fill: #009e73; stroke: #009e73"/>
     <use xlink:href="#m72a5fd2249" x="155.698541" y="105.336477" style="fill: #009e73; stroke: #009e73"/>
     <use xlink:href="#m72a5fd2249" x="177.087703" y="105.336477" style="fill: #009e73; stroke: #009e73"/>
     <use xlink:href="#m72a5fd2249" x="203.412826" y="105.336477" style="fill: #009e73; stroke: #009e73"/>
     <use xlink:href="#m72a5fd2249" x="214.930068" y="105.336477" style="fill: #009e73; stroke: #009e73"/>
     <use xlink:href="#m72a5fd2249" x="216.575388" y="105.336477" style="fill: #009e73; stroke: #009e73"/>
     <use xlink:href="#m72a5fd2249" x="218.220708" y="105.336477" style="fill: #009e73; stroke: #009e73"/>
     <use xlink:href="#m72a5fd2249" x="265.934994" y="105.336477" style="fill: #009e73; stroke: #009e73"/>
     <use xlink:href="#m72a5fd2249" x="267.580314" y="105.336477" style="fill: #009e73; stroke: #009e73"/>
     <use xlink:href="#m72a5fd2249" x="269.225634" y="105.336477" style="fill: #009e73; stroke: #009e73"/>
     <use xlink:href="#m72a5fd2249" x="270.870954" y="105.336477" style="fill: #009e73; stroke: #009e73"/>
     <use xlink:href="#m72a5fd2249" x="272.516275" y="105.336477" style="fill: #009e73; stroke: #009e73"/>
     <use xlink:href="#m72a5fd2249" x="274.161595" y="105.336477" style="fill: #009e73; stroke: #009e73"/>
     <use xlink:href="#m72a5fd2249" x="275.806915" y="105.336477" style="fill: #009e73; stroke: #009e73"/>
     <use xlink:href="#m72a5fd2249" x="287.324156" y="105.336477" style="fill: #009e73; stroke: #009e73"/>
     <use xlink:href="#m72a5fd2249" x="292.260117" y="105.336477" style="fill: #009e73; stroke: #009e73"/>
     <use xlink:href="#m72a5fd2249" x="293.905437" y="105.336477" style="fill: #009e73; stroke: #009e73"/>
     <use xlink:href="#m72a5fd2249" x="298.841398" y="105.336477" style="fill: #009e73; stroke: #009e73"/>
     <use xlink:href="#m72a5fd2249" x="303.777358" y="105.336477" style="fill: #009e73; stroke: #009e73"/>
     <use xlink:href="#m72a5fd2249" x="305.422679" y="105.336477" style="fill: #009e73; stroke: #009e73"/>
     <use xlink:href="#m72a5fd2249" x="310.358639" y="105.336477" style="fill: #009e73; stroke: #009e73"/>
     <use xlink:href="#m72a5fd2249" x="315.2946" y="105.336477" style="fill: #009e73; stroke: #009e73"/>
     <use xlink:href="#m72a5fd2249" x="331.747802" y="105.336477" style="fill: #009e73; stroke: #009e73"/>
     <use xlink:href="#m72a5fd2249" x="376.171447" y="105.336477" style="fill: #009e73; stroke: #009e73"/>
    </g>
   </g>
   <g id="patch_3">
    <path d="M 50.15125 114.006125 
L 50.15125 67.768 
" style="fill: none; stroke: #000000; stroke-width: 0.8; stroke-linejoin: miter; stroke-linecap: square"/>
   </g>
   <g id="patch_4">
    <path d="M 50.15125 114.006125 
L 417.55125 114.006125 
" style="fill: none; stroke: #000000; stroke-width: 0.8; stroke-linejoin: miter; stroke-linecap: square"/>
   </g>
   <g id="text_14">
    <!-- P15 -->
    <g transform="translate(50.15125 61.768) scale(0.1 -0.1)">
     <defs>
      <path id="DejaVuSans-Bold-33" d="M 588 4666 
L 2584 4666 
Q 3475 4666 3951 4270 
Q 4428 3875 4428 3144 
Q 4428 2409 3951 2014 
Q 3475 1619 2584 1619 
L 1791 1619 
L 1791 0 
L 588 0 
L 588 4666 
z
M 1791 3794 
L 1791 2491 
L 2456 2491 
Q 2806 2491 2997 2661 
Q 3188 2831 3188 3144 
Q 3188 3456 2997 3625 
Q 2806 3794 2456 3794 
L 1791 3794 
z
" transform="scale(0.015625)"/>
      <path id="DejaVuSans-Bold-14" d="M 750 831 
L 1813 831 
L 1813 3847 
L 722 3622 
L 722 4441 
L 1806 4666 
L 2950 4666 
L 2950 831 
L 4013 831 
L 4013 0 
L 750 0 
L 750 831 
z
" transform="scale(0.015625)"/>
      <path id="DejaVuSans-Bold-18" d="M 678 4666 
L 3669 4666 
L 3669 3781 
L 1638 3781 
L 1638 3059 
Q 1775 3097 1914 3117 
Q 2053 3138 2203 3138 
Q 3056 3138 3531 2711 
Q 4006 2284 4006 1522 
Q 4006 766 3489 337 
Q 2972 -91 2053 -91 
Q 1656 -91 1267 -14 
Q 878 63 494 219 
L 494 1166 
Q 875 947 1217 837 
Q 1559 728 1863 728 
Q 2300 728 2551 942 
Q 2803 1156 2803 1522 
Q 2803 1891 2551 2103 
Q 2300 2316 1863 2316 
Q 1603 2316 1309 2248 
Q 1016 2181 678 2041 
L 678 4666 
z
" transform="scale(0.015625)"/>
     </defs>
     <use xlink:href="#DejaVuSans-Bold-33"/>
     <use xlink:href="#DejaVuSans-Bold-14" transform="translate(73.296875 0)"/>
     <use xlink:href="#DejaVuSans-Bold-18" transform="translate(142.875 0)"/>
    </g>
   </g>
  </g>
  <g id="text_15">
   <!-- Query-based group: chronological query ↔ result-click ↔ playback sequence -->
   <g transform="translate(21.562187 14.798438) scale(0.1 -0.1)">
    <defs>
     <path id="DejaVuSans-34" d="M 2522 4238 
Q 1834 4238 1429 3725 
Q 1025 3213 1025 2328 
Q 1025 1447 1429 934 
Q 1834 422 2522 422 
Q 3209 422 3611 934 
Q 4013 1447 4013 2328 
Q 4013 3213 3611 3725 
Q 3209 4238 2522 4238 
z
M 3406 84 
L 4238 -825 
L 3475 -825 
L 2784 -78 
Q 2681 -84 2626 -87 
Q 2572 -91 2522 -91 
Q 1538 -91 948 567 
Q 359 1225 359 2328 
Q 359 3434 948 4092 
Q 1538 4750 2522 4750 
Q 3503 4750 4090 4092 
Q 4678 3434 4678 2328 
Q 4678 1516 4351 937 
Q 4025 359 3406 84 
z
" transform="scale(0.015625)"/>
     <path id="DejaVuSans-10" d="M 313 2009 
L 1997 2009 
L 1997 1497 
L 313 1497 
L 313 2009 
z
" transform="scale(0.015625)"/>
     <path id="DejaVuSans-47" d="M 2906 2969 
L 2906 4863 
L 3481 4863 
L 3481 0 
L 2906 0 
L 2906 525 
Q 2725 213 2448 61 
Q 2172 -91 1784 -91 
Q 1150 -91 751 415 
Q 353 922 353 1747 
Q 353 2572 751 3078 
Q 1150 3584 1784 3584 
Q 2172 3584 2448 3432 
Q 2725 3281 2906 2969 
z
M 947 1747 
Q 947 1113 1208 752 
Q 1469 391 1925 391 
Q 2381 391 2643 752 
Q 2906 1113 2906 1747 
Q 2906 2381 2643 2742 
Q 2381 3103 1925 3103 
Q 1469 3103 1208 2742 
Q 947 2381 947 1747 
z
" transform="scale(0.015625)"/>
     <path id="DejaVuSans-4a" d="M 2906 1791 
Q 2906 2416 2648 2759 
Q 2391 3103 1925 3103 
Q 1463 3103 1205 2759 
Q 947 2416 947 1791 
Q 947 1169 1205 825 
Q 1463 481 1925 481 
Q 2391 481 2648 825 
Q 2906 1169 2906 1791 
z
M 3481 434 
Q 3481 -459 3084 -895 
Q 2688 -1331 1869 -1331 
Q 1566 -1331 1297 -1286 
Q 1028 -1241 775 -1147 
L 775 -588 
Q 1028 -725 1275 -790 
Q 1522 -856 1778 -856 
Q 2344 -856 2625 -561 
Q 2906 -266 2906 331 
L 2906 616 
Q 2728 306 2450 153 
Q 2172 0 1784 0 
Q 1141 0 747 490 
Q 353 981 353 1791 
Q 353 2603 747 3093 
Q 1141 3584 1784 3584 
Q 2172 3584 2450 3431 
Q 2728 3278 2906 2969 
L 2906 3500 
L 3481 3500 
L 3481 434 
z
" transform="scale(0.015625)"/>
     <path id="DejaVuSans-52" d="M 1959 3097 
Q 1497 3097 1228 2736 
Q 959 2375 959 1747 
Q 959 1119 1226 758 
Q 1494 397 1959 397 
Q 2419 397 2687 759 
Q 2956 1122 2956 1747 
Q 2956 2369 2687 2733 
Q 2419 3097 1959 3097 
z
M 1959 3584 
Q 2709 3584 3137 3096 
Q 3566 2609 3566 1747 
Q 3566 888 3137 398 
Q 2709 -91 1959 -91 
Q 1206 -91 779 398 
Q 353 888 353 1747 
Q 353 2609 779 3096 
Q 1206 3584 1959 3584 
z
" transform="scale(0.015625)"/>
     <path id="DejaVuSans-1d" d="M 750 794 
L 1409 794 
L 1409 0 
L 750 0 
L 750 794 
z
M 750 3309 
L 1409 3309 
L 1409 2516 
L 750 2516 
L 750 3309 
z
" transform="scale(0.015625)"/>
     <path id="DejaVuSans-4b" d="M 3513 2113 
L 3513 0 
L 2938 0 
L 2938 2094 
Q 2938 2591 2744 2837 
Q 2550 3084 2163 3084 
Q 1697 3084 1428 2787 
Q 1159 2491 1159 1978 
L 1159 0 
L 581 0 
L 581 4863 
L 1159 4863 
L 1159 2956 
Q 1366 3272 1645 3428 
Q 1925 3584 2291 3584 
Q 2894 3584 3203 3211 
Q 3513 2838 3513 2113 
z
" transform="scale(0.015625)"/>
     <path id="DejaVuSans-c1e" d="M 313 1866 
L 313 2147 
L 1541 3375 
L 1916 3000 
L 1188 2272 
L 4175 2272 
L 3447 3000 
L 3822 3375 
L 5050 2147 
L 5050 1866 
L 3822 638 
L 3447 1013 
L 4175 1741 
L 1188 1741 
L 1916 1013 
L 1541 638 
L 313 1866 
z
" transform="scale(0.015625)"/>
    </defs>
    <use xlink:href="#DejaVuSans-34"/>
    <use xlink:href="#DejaVuSans-58" transform="translate(78.71875 0)"/>
    <use xlink:href="#DejaVuSans-48" transform="translate(142.09375 0)"/>
    <use xlink:href="#DejaVuSans-55" transform="translate(203.625 0)"/>
    <use xlink:href="#DejaVuSans-5c" transform="translate(244.734375 0)"/>
    <use xlink:href="#DejaVuSans-10" transform="translate(302.171875 0)"/>
    <use xlink:href="#DejaVuSans-45" transform="translate(338.25 0)"/>
    <use xlink:href="#DejaVuSans-44" transform="translate(401.734375 0)"/>
    <use xlink:href="#DejaVuSans-56" transform="translate(463.015625 0)"/>
    <use xlink:href="#DejaVuSans-48" transform="translate(515.109375 0)"/>
    <use xlink:href="#DejaVuSans-47" transform="translate(576.640625 0)"/>
    <use xlink:href="#DejaVuSans-3" transform="translate(640.125 0)"/>
    <use xlink:href="#DejaVuSans-4a" transform="translate(671.90625 0)"/>
    <use xlink:href="#DejaVuSans-55" transform="translate(735.390625 0)"/>
    <use xlink:href="#DejaVuSans-52" transform="translate(774.296875 0)"/>
    <use xlink:href="#DejaVuSans-58" transform="translate(835.484375 0)"/>
    <use xlink:href="#DejaVuSans-53" transform="translate(898.859375 0)"/>
    <use xlink:href="#DejaVuSans-1d" transform="translate(962.34375 0)"/>
    <use xlink:href="#DejaVuSans-3" transform="translate(996.03125 0)"/>
    <use xlink:href="#DejaVuSans-46" transform="translate(1027.8125 0)"/>
    <use xlink:href="#DejaVuSans-4b" transform="translate(1082.796875 0)"/>
    <use xlink:href="#DejaVuSans-55" transform="translate(1146.171875 0)"/>
    <use xlink:href="#DejaVuSans-52" transform="translate(1185.078125 0)"/>
    <use xlink:href="#DejaVuSans-51" transform="translate(1246.265625 0)"/>
    <use xlink:href="#DejaVuSans-52" transform="translate(1309.640625 0)"/>
    <use xlink:href="#DejaVuSans-4f" transform="translate(1370.828125 0)"/>
    <use xlink:href="#DejaVuSans-52" transform="translate(1398.609375 0)"/>
    <use xlink:href="#DejaVuSans-4a" transform="translate(1459.796875 0)"/>
    <use xlink:href="#DejaVuSans-4c" transform="translate(1523.28125 0)"/>
    <use xlink:href="#DejaVuSans-46" transform="translate(1551.0625 0)"/>
    <use xlink:href="#DejaVuSans-44" transform="translate(1606.046875 0)"/>
    <use xlink:href="#DejaVuSans-4f" transform="translate(1667.328125 0)"/>
    <use xlink:href="#DejaVuSans-3" transform="translate(1695.109375 0)"/>
    <use xlink:href="#DejaVuSans-54" transform="translate(1726.890625 0)"/>
    <use xlink:href="#DejaVuSans-58" transform="translate(1790.375 0)"/>
    <use xlink:href="#DejaVuSans-48" transform="translate(1853.75 0)"/>
    <use xlink:href="#DejaVuSans-55" transform="translate(1915.28125 0)"/>
    <use xlink:href="#DejaVuSans-5c" transform="translate(1956.390625 0)"/>
    <use xlink:href="#DejaVuSans-3" transform="translate(2015.578125 0)"/>
    <use xlink:href="#DejaVuSans-c1e" transform="translate(2047.359375 0)"/>
    <use xlink:href="#DejaVuSans-3" transform="translate(2131.15625 0)"/>
    <use xlink:href="#DejaVuSans-55" transform="translate(2162.9375 0)"/>
    <use xlink:href="#DejaVuSans-48" transform="translate(2201.84375 0)"/>
    <use xlink:href="#DejaVuSans-56" transform="translate(2263.375 0)"/>
    <use xlink:href="#DejaVuSans-58" transform="translate(2315.46875 0)"/>
    <use xlink:href="#DejaVuSans-4f" transform="translate(2378.84375 0)"/>
    <use xlink:href="#DejaVuSans-57" transform="translate(2406.625 0)"/>
    <use xlink:href="#DejaVuSans-10" transform="translate(2445.828125 0)"/>
    <use xlink:href="#DejaVuSans-46" transform="translate(2481.90625 0)"/>
    <use xlink:href="#DejaVuSans-4f" transform="translate(2536.890625 0)"/>
    <use xlink:href="#DejaVuSans-4c" transform="translate(2564.671875 0)"/>
    <use xlink:href="#DejaVuSans-46" transform="translate(2592.453125 0)"/>
    <use xlink:href="#DejaVuSans-4e" transform="translate(2647.4375 0)"/>
    <use xlink:href="#DejaVuSans-3" transform="translate(2705.34375 0)"/>
    <use xlink:href="#DejaVuSans-c1e" transform="translate(2737.125 0)"/>
    <use xlink:href="#DejaVuSans-3" transform="translate(2820.921875 0)"/>
    <use xlink:href="#DejaVuSans-53" transform="translate(2852.703125 0)"/>
    <use xlink:href="#DejaVuSans-4f" transform="translate(2916.1875 0)"/>
    <use xlink:href="#DejaVuSans-44" transform="translate(2943.96875 0)"/>
    <use xlink:href="#DejaVuSans-5c" transform="translate(3005.25 0)"/>
    <use xlink:href="#DejaVuSans-45" transform="translate(3064.4375 0)"/>
    <use xlink:href="#DejaVuSans-44" transform="translate(3127.921875 0)"/>
    <use xlink:href="#DejaVuSans-46" transform="translate(3189.203125 0)"/>
    <use xlink:href="#DejaVuSans-4e" transform="translate(3244.1875 0)"/>
    <use xlink:href="#DejaVuSans-3" transform="translate(3302.09375 0)"/>
    <use xlink:href="#DejaVuSans-56" transform="translate(3333.875 0)"/>
    <use xlink:href="#DejaVuSans-48" transform="translate(3385.96875 0)"/>
    <use xlink:href="#DejaVuSans-54" transform="translate(3447.5 0)"/>
    <use xlink:href="#DejaVuSans-58" transform="translate(3510.984375 0)"/>
    <use xlink:href="#DejaVuSans-48" transform="translate(3574.359375 0)"/>
    <use xlink:href="#DejaVuSans-51" transform="translate(3635.890625 0)"/>
    <use xlink:href="#DejaVuSans-46" transform="translate(3699.265625 0)"/>
    <use xlink:href="#DejaVuSans-48" transform="translate(3754.25 0)"/>
   </g>
  </g>
  <g id="legend_1">
   <g id="line2d_14">
    <defs>
     <path id="me747670155" d="M 0 3.5 
C 0.928211 3.5 1.81853 3.131218 2.474874 2.474874 
C 3.131218 1.81853 3.5 0.928211 3.5 0 
C 3.5 -0.928211 3.131218 -1.81853 2.474874 -2.474874 
C 1.81853 -3.131218 0.928211 -3.5 0 -3.5 
C -0.928211 -3.5 -1.81853 -3.131218 -2.474874 -2.474874 
C -3.131218 -1.81853 -3.5 -0.928211 -3.5 0 
C -3.5 0.928211 -3.131218 1.81853 -2.474874 2.474874 
C -1.81853 3.131218 -0.928211 3.5 0 3.5 
z
" style="stroke: #0072b2"/>
    </defs>
    <g>
     <use xlink:href="#me747670155" x="76.875625" y="25.88675" style="fill: #0072b2; stroke: #0072b2"/>
    </g>
   </g>
   <g id="text_16">
    <!-- query -->
    <g transform="translate(91.275625 28.68675) scale(0.08 -0.08)">
     <use xlink:href="#DejaVuSans-54"/>
     <use xlink:href="#DejaVuSans-58" transform="translate(63.484375 0)"/>
     <use xlink:href="#DejaVuSans-48" transform="translate(126.859375 0)"/>
     <use xlink:href="#DejaVuSans-55" transform="translate(188.390625 0)"/>
     <use xlink:href="#DejaVuSans-5c" transform="translate(229.5 0)"/>
    </g>
   </g>
   <g id="line2d_15">
    <defs>
     <path id="m7c7cb1f53b" d="M 0 3.5 
C 0.928211 3.5 1.81853 3.131218 2.474874 2.474874 
C 3.131218 1.81853 3.5 0.928211 3.5 0 
C 3.5 -0.928211 3.131218 -1.81853 2.474874 -2.474874 
C 1.81853 -3.131218 0.928211 -3.5 0 -3.5 
C -0.928211 -3.5 -1.81853 -3.131218 -2.474874 -2.474874 
C -3.131218 -1.81853 -3.5 -0.928211 -3.5 0 
C -3.5 0.928211 -3.131218 1.81853 -2.474874 2.474874 
C -1.81853 3.131218 -0.928211 3.5 0 3.5 
z
" style="stroke: #d55e00"/>
    </defs>
    <g>
     <use xlink:href="#m7c7cb1f53b" x="138.370625" y="25.88675" style="fill: #d55e00; stroke: #d55e00"/>
    </g>
   </g>
   <g id="text_17">
    <!-- search result clicked -->
    <g transform="translate(152.770625 28.68675) scale(0.08 -0.08)">
     <use xlink:href="#DejaVuSans-56"/>
     <use xlink:href="#DejaVuSans-48" transform="translate(52.09375 0)"/>
     <use xlink:href="#DejaVuSans-44" transform="translate(113.625 0)"/>
     <use xlink:href="#DejaVuSans-55" transform="translate(174.90625 0)"/>
     <use xlink:href="#DejaVuSans-46" transform="translate(213.8125 0)"/>
     <use xlink:href="#DejaVuSans-4b" transform="translate(268.796875 0)"/>
     <use xlink:href="#DejaVuSans-3" transform="translate(332.171875 0)"/>
     <use xlink:href="#DejaVuSans-55" transform="translate(363.953125 0)"/>
     <use xlink:href="#DejaVuSans-48" transform="translate(402.859375 0)"/>
     <use xlink:href="#DejaVuSans-56" transform="translate(464.390625 0)"/>
     <use xlink:href="#DejaVuSans-58" transform="translate(516.484375 0)"/>
     <use xlink:href="#DejaVuSans-4f" transform="translate(579.859375 0)"/>
     <use xlink:href="#DejaVuSans-57" transform="translate(607.640625 0)"/>
     <use xlink:href="#DejaVuSans-3" transform="translate(646.84375 0)"/>
     <use xlink:href="#DejaVuSans-46" transform="translate(678.625 0)"/>
     <use xlink:href="#DejaVuSans-4f" transform="translate(733.609375 0)"/>
     <use xlink:href="#DejaVuSans-4c" transform="translate(761.390625 0)"/>
     <use xlink:href="#DejaVuSans-46" transform="translate(789.171875 0)"/>
     <use xlink:href="#DejaVuSans-4e" transform="translate(844.15625 0)"/>
     <use xlink:href="#DejaVuSans-48" transform="translate(898.5 0)"/>
     <use xlink:href="#DejaVuSans-47" transform="translate(960.03125 0)"/>
    </g>
   </g>
   <g id="line2d_16">
    <defs>
     <path id="m44a5f24262" d="M 0 3.5 
C 0.928211 3.5 1.81853 3.131218 2.474874 2.474874 
C 3.131218 1.81853 3.5 0.928211 3.5 0 
C 3.5 -0.928211 3.131218 -1.81853 2.474874 -2.474874 
C 1.81853 -3.131218 0.928211 -3.5 0 -3.5 
C -0.928211 -3.5 -1.81853 -3.131218 -2.474874 -2.474874 
C -3.131218 -1.81853 -3.5 -0.928211 -3.5 0 
C -3.5 0.928211 -3.131218 1.81853 -2.474874 2.474874 
C -1.81853 3.131218 -0.928211 3.5 0 3.5 
z
" style="stroke: #009e73"/>
    </defs>
    <g>
     <use xlink:href="#m44a5f24262" x="258.651875" y="25.88675" style="fill: #009e73; stroke: #009e73"/>
    </g>
   </g>
   <g id="text_18">
    <!-- playback link clicked -->
    <g transform="translate(273.051875 28.68675) scale(0.08 -0.08)">
     <use xlink:href="#DejaVuSans-53"/>
     <use xlink:href="#DejaVuSans-4f" transform="translate(63.484375 0)"/>
     <use xlink:href="#DejaVuSans-44" transform="translate(91.265625 0)"/>
     <use xlink:href="#DejaVuSans-5c" transform="translate(152.546875 0)"/>
     <use xlink:href="#DejaVuSans-45" transform="translate(211.734375 0)"/>
     <use xlink:href="#DejaVuSans-44" transform="translate(275.21875 0)"/>
     <use xlink:href="#DejaVuSans-46" transform="translate(336.5 0)"/>
     <use xlink:href="#DejaVuSans-4e" transform="translate(391.484375 0)"/>
     <use xlink:href="#DejaVuSans-3" transform="translate(449.390625 0)"/>
     <use xlink:href="#DejaVuSans-4f" transform="translate(481.171875 0)"/>
     <use xlink:href="#DejaVuSans-4c" transform="translate(508.953125 0)"/>
     <use xlink:href="#DejaVuSans-51" transform="translate(536.734375 0)"/>
     <use xlink:href="#DejaVuSans-4e" transform="translate(600.109375 0)"/>
     <use xlink:href="#DejaVuSans-3" transform="translate(658.015625 0)"/>
     <use xlink:href="#DejaVuSans-46" transform="translate(689.796875 0)"/>
     <use xlink:href="#DejaVuSans-4f" transform="translate(744.78125 0)"/>
     <use xlink:href="#DejaVuSans-4c" transform="translate(772.5625 0)"/>
     <use xlink:href="#DejaVuSans-46" transform="translate(800.34375 0)"/>
     <use xlink:href="#DejaVuSans-4e" transform="translate(855.328125 0)"/>
     <use xlink:href="#DejaVuSans-48" transform="translate(909.671875 0)"/>
     <use xlink:href="#DejaVuSans-47" transform="translate(971.203125 0)"/>
    </g>
   </g>
  </g>
 </g>
 <defs>
  <clipPath id="p1464837256">
   <rect x="50.15125" y="67.768" width="367.4" height="46.238125"/>
  </clipPath>
 </defs>
</svg>
