<?xml version="1.0" encoding="utf-8" standalone="no"?>
<!DOCTYPE svg PUBLIC "-//W3C//DTD SVG 1.1//EN"
  "http://www.w3.org/Graphics/SVG/1.1/DTD/svg11.dtd">
<svg xmlns:xlink="http://www.w3.org/1999/xlink" width="424.492924pt" height="148.20675pt" viewBox="0 0 424.492924 148.20675" xmlns="http://www.w3.org/2000/svg" version="1.1">
 <metadata>
  <rdf:RDF xmlns:dc="http://purl.org/dc/elements/1.1/" xmlns:cc="http://creativecommons.org/ns#" xmlns:rdf="http://www.w3.org/1999/02/22-rdf-syntax-ns#">
   <cc:Work>
    <dc:type rdf:resource="http://purl.org/dc/dcmitype/StillImage"/>
    <dc:date>2026-07-06T13:45:44.114974</dc:date>
    <dc:format>image/svg+xml</dc:format>
    <dc:creator>
     <cc:Agent>
      <dc:title>Matplotlib v3.11.0, https://matplotlib.org/</dc:title>
     </cc:Agent>
    </dc:creator>
   </cc:Work>
  </rdf:RDF>
 </metadata>
 <defs>
  <style type="text/css">*{stroke-linejoin: round; stroke-linecap: butt}</style>
 </defs>
 <g id="figure_1">
  <g id="patch_1">
   <path d="M -0 148.20675 
L 424.492924 148.20675 
L 424.492924 0 
L -0 0 
z
" style="fill: #ffffff"/>
  </g>
  <g id="axes_1">
   <g id="patch_2">
    <path d="M 50.15125 114.006125 
L 413.85258 114.006125 
L 413.85258 67.768 
L 50.15125 67.768 
z
" style="fill: #ffffff"/>
   </g>
   <g id="line2d_1">
    <path d="M 66.683129 76.437648 
L 69.150573 76.437648 
L 74.085462 105.336477 
L 177.718134 105.336477 
L 180.185579 76.437648 
L 182.653023 76.437648 
L 187.587913 105.336477 
L 202.39258 105.336477 
L 204.860025 76.437648 
L 207.327469 76.437648 
L 212.262358 105.336477 
L 214.729803 76.437648 
L 219.664692 105.336477 
L 234.469359 105.336477 
L 236.936804 76.437648 
L 239.404249 76.437648 
L 244.339138 105.336477 
L 259.143805 105.336477 
L 261.61125 76.437648 
L 269.013583 76.437648 
L 271.481028 90.887062 
L 273.948473 76.437648 
L 278.883362 105.336477 
L 323.297364 105.336477 
L 325.764809 76.437648 
L 330.699698 105.336477 
L 338.102031 105.336477 
L 340.569476 76.437648 
L 343.036921 76.437648 
L 347.97181 105.336477 
L 357.841588 105.336477 
L 360.309033 76.437648 
L 367.711366 76.437648 
L 372.646255 105.336477 
L 377.581145 105.336477 
L 380.048589 76.437648 
L 384.983478 76.437648 
L 387.450923 90.887062 
L 389.918367 76.437648 
L 392.385812 76.437648 
L 397.320701 105.336477 
L 397.320701 105.336477 
" clip-path="url(#pcb57677ac4)" style="fill: none; stroke: #b2b2b2; stroke-width: 0.8; stroke-linecap: square"/>
   </g>
   <g id="matplotlib.axis_1">
    <g id="xtick_1">
     <g id="line2d_2">
      <defs>
       <path id="m7f3807a8d9" d="M 0 0 
L 0 3.5 
" style="stroke: #000000; stroke-width: 0.8"/>
      </defs>
      <g>
       <use xlink:href="#m7f3807a8d9" x="64.215684" y="114.006125" style="stroke: #000000; stroke-width: 0.8"/>
      </g>
     </g>
     <g id="text_1">
      <!-- 0 -->
      <g transform="translate(61.670684 127.08425) scale(0.08 -0.08)">
       <defs>
        <path id="DejaVuSans-13" d="M 2034 4250 
Q 1547 4250 1301 3770 
Q 1056 3291 1056 2328 
Q 1056 1369 1301 889 
Q 1547 409 2034 409 
Q 2525 409 2770 889 
Q 3016 1369 3016 2328 
Q 3016 3291 2770 3770 
Q 2525 4250 2034 4250 
z
M 2034 4750 
Q 2819 4750 3233 4129 
Q 3647 3509 3647 2328 
Q 3647 1150 3233 529 
Q 2819 -91 2034 -91 
Q 1250 -91 836 529 
Q 422 1150 422 2328 
Q 422 3509 836 4129 
Q 1250 4750 2034 4750 
z
" transform="scale(0.015625)"/>
       </defs>
       <use xlink:href="#DejaVuSans-13"/>
      </g>
     </g>
    </g>
    <g id="xtick_2">
     <g id="line2d_3">
      <g>
       <use xlink:href="#m7f3807a8d9" x="113.564575" y="114.006125" style="stroke: #000000; stroke-width: 0.8"/>
      </g>
     </g>
     <g id="text_2">
      <!-- 20 -->
      <g transform="translate(108.474575 127.08425) scale(0.08 -0.08)">
       <defs>
        <path id="DejaVuSans-15" d="M 1228 531 
L 3431 531 
L 3431 0 
L 469 0 
L 469 531 
Q 828 903 1448 1529 
Q 2069 2156 2228 2338 
Q 2531 2678 2651 2914 
Q 2772 3150 2772 3378 
Q 2772 3750 2511 3984 
Q 2250 4219 1831 4219 
Q 1534 4219 1204 4116 
Q 875 4013 500 3803 
L 500 4441 
Q 881 4594 1212 4672 
Q 1544 4750 1819 4750 
Q 2544 4750 2975 4387 
Q 3406 4025 3406 3419 
Q 3406 3131 3298 2873 
Q 3191 2616 2906 2266 
Q 2828 2175 2409 1742 
Q 1991 1309 1228 531 
z
" transform="scale(0.015625)"/>
       </defs>
       <use xlink:href="#DejaVuSans-15"/>
       <use xlink:href="#DejaVuSans-13" transform="translate(63.625 0)"/>
      </g>
     </g>
    </g>
    <g id="xtick_3">
     <g id="line2d_4">
      <g>
       <use xlink:href="#m7f3807a8d9" x="162.913467" y="114.006125" style="stroke: #000000; stroke-width: 0.8"/>
      </g>
     </g>
     <g id="text_3">
      <!-- 40 -->
      <g transform="translate(157.823467 127.08425) scale(0.08 -0.08)">
       <defs>
        <path id="DejaVuSans-17" d="M 2419 4116 
L 825 1625 
L 2419 1625 
L 2419 4116 
z
M 2253 4666 
L 3047 4666 
L 3047 1625 
L 3713 1625 
L 3713 1100 
L 3047 1100 
L 3047 0 
L 2419 0 
L 2419 1100 
L 313 1100 
L 313 1709 
L 2253 4666 
z
" transform="scale(0.015625)"/>
       </defs>
       <use xlink:href="#DejaVuSans-17"/>
       <use xlink:href="#DejaVuSans-13" transform="translate(63.625 0)"/>
      </g>
     </g>
    </g>
    <g id="xtick_4">
     <g id="line2d_5">
      <g>
       <use xlink:href="#m7f3807a8d9" x="212.262358" y="114.006125" style="stroke: #000000; stroke-width: 0.8"/>
      </g>
     </g>
     <g id="text_4">
      <!-- 60 -->
      <g transform="translate(207.172358 127.08425) scale(0.08 -0.08)">
       <defs>
        <path id="DejaVuSans-19" d="M 2113 2584 
Q 1688 2584 1439 2293 
Q 1191 2003 1191 1497 
Q 1191 994 1439 701 
Q 1688 409 2113 409 
Q 2538 409 2786 701 
Q 3034 994 3034 1497 
Q 3034 2003 2786 2293 
Q 2538 2584 2113 2584 
z
M 3366 4563 
L 3366 3988 
Q 3128 4100 2886 4159 
Q 2644 4219 2406 4219 
Q 1781 4219 1451 3797 
Q 1122 3375 1075 2522 
Q 1259 2794 1537 2939 
Q 1816 3084 2150 3084 
Q 2853 3084 3261 2657 
Q 3669 2231 3669 1497 
Q 3669 778 3244 343 
Q 2819 -91 2113 -91 
Q 1303 -91 875 529 
Q 447 1150 447 2328 
Q 447 3434 972 4092 
Q 1497 4750 2381 4750 
Q 2619 4750 2861 4703 
Q 3103 4656 3366 4563 
z
" transform="scale(0.015625)"/>
       </defs>
       <use xlink:href="#DejaVuSans-19"/>
       <use xlink:href="#DejaVuSans-13" transform="translate(63.625 0)"/>
      </g>
     </g>
    </g>
    <g id="xtick_5">
     <g id="line2d_6">
      <g>
       <use xlink:href="#m7f3807a8d9" x="261.61125" y="114.006125" style="stroke: #000000; stroke-width: 0.8"/>
      </g>
     </g>
     <g id="text_5">
      <!-- 80 -->
      <g transform="translate(256.52125 127.08425) scale(0.08 -0.08)">
       <defs>
        <path id="DejaVuSans-1b" d="M 2034 2216 
Q 1584 2216 1326 1975 
Q 1069 1734 1069 1313 
Q 1069 891 1326 650 
Q 1584 409 2034 409 
Q 2484 409 2743 651 
Q 3003 894 3003 1313 
Q 3003 1734 2745 1975 
Q 2488 2216 2034 2216 
z
M 1403 2484 
Q 997 2584 770 2862 
Q 544 3141 544 3541 
Q 544 4100 942 4425 
Q 1341 4750 2034 4750 
Q 2731 4750 3128 4425 
Q 3525 4100 3525 3541 
Q 3525 3141 3298 2862 
Q 3072 2584 2669 2484 
Q 3125 2378 3379 2068 
Q 3634 1759 3634 1313 
Q 3634 634 3220 271 
Q 2806 -91 2034 -91 
Q 1263 -91 848 271 
Q 434 634 434 1313 
Q 434 1759 690 2068 
Q 947 2378 1403 2484 
z
M 1172 3481 
Q 1172 3119 1398 2916 
Q 1625 2713 2034 2713 
Q 2441 2713 2670 2916 
Q 2900 3119 2900 3481 
Q 2900 3844 2670 4047 
Q 2441 4250 2034 4250 
Q 1625 4250 1398 4047 
Q 1172 3844 1172 3481 
z
" transform="scale(0.015625)"/>
       </defs>
       <use xlink:href="#DejaVuSans-1b"/>
       <use xlink:href="#DejaVuSans-13" transform="translate(63.625 0)"/>
      </g>
     </g>
    </g>
    <g id="xtick_6">
     <g id="line2d_7">
      <g>
       <use xlink:href="#m7f3807a8d9" x="310.960141" y="114.006125" style="stroke: #000000; stroke-width: 0.8"/>
      </g>
     </g>
     <g id="text_6">
      <!-- 100 -->
      <g transform="translate(303.325141 127.08425) scale(0.08 -0.08)">
       <defs>
        <path id="DejaVuSans-14" d="M 794 531 
L 1825 531 
L 1825 4091 
L 703 3866 
L 703 4441 
L 1819 4666 
L 2450 4666 
L 2450 531 
L 3481 531 
L 3481 0 
L 794 0 
L 794 531 
z
" transform="scale(0.015625)"/>
       </defs>
       <use xlink:href="#DejaVuSans-14"/>
       <use xlink:href="#DejaVuSans-13" transform="translate(63.625 0)"/>
       <use xlink:href="#DejaVuSans-13" transform="translate(127.25 0)"/>
      </g>
     </g>
    </g>
    <g id="xtick_7">
     <g id="line2d_8">
      <g>
       <use xlink:href="#m7f3807a8d9" x="360.309033" y="114.006125" style="stroke: #000000; stroke-width: 0.8"/>
      </g>
     </g>
     <g id="text_7">
      <!-- 120 -->
      <g transform="translate(352.674033 127.08425) scale(0.08 -0.08)">
       <use xlink:href="#DejaVuSans-14"/>
       <use xlink:href="#DejaVuSans-15" transform="translate(63.625 0)"/>
       <use xlink:href="#DejaVuSans-13" transform="translate(127.25 0)"/>
      </g>
     </g>
    </g>
    <g id="xtick_8">
     <g id="line2d_9">
      <g>
       <use xlink:href="#m7f3807a8d9" x="409.657924" y="114.006125" style="stroke: #000000; stroke-width: 0.8"/>
      </g>
     </g>
     <g id="text_8">
      <!-- 140 -->
      <g transform="translate(402.022924 127.08425) scale(0.08 -0.08)">
       <use xlink:href="#DejaVuSans-14"/>
       <use xlink:href="#DejaVuSans-17" transform="translate(63.625 0)"/>
       <use xlink:href="#DejaVuSans-13" transform="translate(127.25 0)"/>
      </g>
     </g>
    </g>
    <g id="text_9">
     <!-- entry number -->
     <g transform="translate(204.543165 139.084875) scale(0.08 -0.08)">
      <defs>
       <path id="DejaVuSans-48" d="M 3597 1894 
L 3597 1613 
L 953 1613 
Q 991 1019 1311 708 
Q 1631 397 2203 397 
Q 2534 397 2845 478 
Q 3156 559 3463 722 
L 3463 178 
Q 3153 47 2828 -22 
Q 2503 -91 2169 -91 
Q 1331 -91 842 396 
Q 353 884 353 1716 
Q 353 2575 817 3079 
Q 1281 3584 2069 3584 
Q 2775 3584 3186 3129 
Q 3597 2675 3597 1894 
z
M 3022 2063 
Q 3016 2534 2758 2815 
Q 2500 3097 2075 3097 
Q 1594 3097 1305 2825 
Q 1016 2553 972 2059 
L 3022 2063 
z
" transform="scale(0.015625)"/>
       <path id="DejaVuSans-51" d="M 3513 2113 
L 3513 0 
L 2938 0 
L 2938 2094 
Q 2938 2591 2744 2837 
Q 2550 3084 2163 3084 
Q 1697 3084 1428 2787 
Q 1159 2491 1159 1978 
L 1159 0 
L 581 0 
L 581 3500 
L 1159 3500 
L 1159 2956 
Q 1366 3272 1645 3428 
Q 1925 3584 2291 3584 
Q 2894 3584 3203 3211 
Q 3513 2838 3513 2113 
z
" transform="scale(0.015625)"/>
       <path id="DejaVuSans-57" d="M 1172 4494 
L 1172 3500 
L 2356 3500 
L 2356 3053 
L 1172 3053 
L 1172 1153 
Q 1172 725 1289 603 
Q 1406 481 1766 481 
L 2356 481 
L 2356 0 
L 1766 0 
Q 1100 0 847 248 
Q 594 497 594 1153 
L 594 3053 
L 172 3053 
L 172 3500 
L 594 3500 
L 594 4494 
L 1172 4494 
z
" transform="scale(0.015625)"/>
       <path id="DejaVuSans-55" d="M 2631 2963 
Q 2534 3019 2420 3045 
Q 2306 3072 2169 3072 
Q 1681 3072 1420 2755 
Q 1159 2438 1159 1844 
L 1159 0 
L 581 0 
L 581 3500 
L 1159 3500 
L 1159 2956 
Q 1341 3275 1631 3429 
Q 1922 3584 2338 3584 
Q 2397 3584 2469 3576 
Q 2541 3569 2628 3553 
L 2631 2963 
z
" transform="scale(0.015625)"/>
       <path id="DejaVuSans-5c" d="M 2059 -325 
Q 1816 -950 1584 -1140 
Q 1353 -1331 966 -1331 
L 506 -1331 
L 506 -850 
L 844 -850 
Q 1081 -850 1212 -737 
Q 1344 -625 1503 -206 
L 1606 56 
L 191 3500 
L 800 3500 
L 1894 763 
L 2988 3500 
L 3597 3500 
L 2059 -325 
z
" transform="scale(0.015625)"/>
       <path id="DejaVuSans-3" transform="scale(0.015625)"/>
       <path id="DejaVuSans-58" d="M 544 1381 
L 544 3500 
L 1119 3500 
L 1119 1403 
Q 1119 906 1312 657 
Q 1506 409 1894 409 
Q 2359 409 2629 706 
Q 2900 1003 2900 1516 
L 2900 3500 
L 3475 3500 
L 3475 0 
L 2900 0 
L 2900 538 
Q 2691 219 2414 64 
Q 2138 -91 1772 -91 
Q 1169 -91 856 284 
Q 544 659 544 1381 
z
M 1991 3584 
L 1991 3584 
z
" transform="scale(0.015625)"/>
       <path id="DejaVuSans-50" d="M 3328 2828 
Q 3544 3216 3844 3400 
Q 4144 3584 4550 3584 
Q 5097 3584 5394 3201 
Q 5691 2819 5691 2113 
L 5691 0 
L 5113 0 
L 5113 2094 
Q 5113 2597 4934 2840 
Q 4756 3084 4391 3084 
Q 3944 3084 3684 2787 
Q 3425 2491 3425 1978 
L 3425 0 
L 2847 0 
L 2847 2094 
Q 2847 2600 2669 2842 
Q 2491 3084 2119 3084 
Q 1678 3084 1418 2786 
Q 1159 2488 1159 1978 
L 1159 0 
L 581 0 
L 581 3500 
L 1159 3500 
L 1159 2956 
Q 1356 3278 1631 3431 
Q 1906 3584 2284 3584 
Q 2666 3584 2933 3390 
Q 3200 3197 3328 2828 
z
" transform="scale(0.015625)"/>
       <path id="DejaVuSans-45" d="M 3116 1747 
Q 3116 2381 2855 2742 
Q 2594 3103 2138 3103 
Q 1681 3103 1420 2742 
Q 1159 2381 1159 1747 
Q 1159 1113 1420 752 
Q 1681 391 2138 391 
Q 2594 391 2855 752 
Q 3116 1113 3116 1747 
z
M 1159 2969 
Q 1341 3281 1617 3432 
Q 1894 3584 2278 3584 
Q 2916 3584 3314 3078 
Q 3713 2572 3713 1747 
Q 3713 922 3314 415 
Q 2916 -91 2278 -91 
Q 1894 -91 1617 61 
Q 1341 213 1159 525 
L 1159 0 
L 581 0 
L 581 4863 
L 1159 4863 
L 1159 2969 
z
" transform="scale(0.015625)"/>
      </defs>
      <use xlink:href="#DejaVuSans-48"/>
      <use xlink:href="#DejaVuSans-51" transform="translate(61.53125 0)"/>
      <use xlink:href="#DejaVuSans-57" transform="translate(124.90625 0)"/>
      <use xlink:href="#DejaVuSans-55" transform="translate(164.109375 0)"/>
      <use xlink:href="#DejaVuSans-5c" transform="translate(205.21875 0)"/>
      <use xlink:href="#DejaVuSans-3" transform="translate(264.40625 0)"/>
      <use xlink:href="#DejaVuSans-51" transform="translate(296.1875 0)"/>
      <use xlink:href="#DejaVuSans-58" transform="translate(359.5625 0)"/>
      <use xlink:href="#DejaVuSans-50" transform="translate(422.9375 0)"/>
      <use xlink:href="#DejaVuSans-45" transform="translate(520.34375 0)"/>
      <use xlink:href="#DejaVuSans-48" transform="translate(583.828125 0)"/>
      <use xlink:href="#DejaVuSans-55" transform="translate(645.359375 0)"/>
     </g>
    </g>
   </g>
   <g id="matplotlib.axis_2">
    <g id="ytick_1">
     <g id="line2d_10">
      <defs>
       <path id="m19fa820035" d="M 0 0 
L -3.5 0 
" style="stroke: #000000; stroke-width: 0.8"/>
      </defs>
      <g>
       <use xlink:href="#m19fa820035" x="50.15125" y="105.336477" style="stroke: #000000; stroke-width: 0.8"/>
      </g>
     </g>
     <g id="text_10">
      <!-- playback -->
      <g transform="translate(7.2 103.975148) scale(0.08 -0.08)">
       <defs>
        <path id="DejaVuSans-53" d="M 1159 525 
L 1159 -1331 
L 581 -1331 
L 581 3500 
L 1159 3500 
L 1159 2969 
Q 1341 3281 1617 3432 
Q 1894 3584 2278 3584 
Q 2916 3584 3314 3078 
Q 3713 2572 3713 1747 
Q 3713 922 3314 415 
Q 2916 -91 2278 -91 
Q 1894 -91 1617 61 
Q 1341 213 1159 525 
z
M 3116 1747 
Q 3116 2381 2855 2742 
Q 2594 3103 2138 3103 
Q 1681 3103 1420 2742 
Q 1159 2381 1159 1747 
Q 1159 1113 1420 752 
Q 1681 391 2138 391 
Q 2594 391 2855 752 
Q 3116 1113 3116 1747 
z
" transform="scale(0.015625)"/>
        <path id="DejaVuSans-4f" d="M 603 4863 
L 1178 4863 
L 1178 0 
L 603 0 
L 603 4863 
z
" transform="scale(0.015625)"/>
        <path id="DejaVuSans-44" d="M 2194 1759 
Q 1497 1759 1228 1600 
Q 959 1441 959 1056 
Q 959 750 1161 570 
Q 1363 391 1709 391 
Q 2188 391 2477 730 
Q 2766 1069 2766 1631 
L 2766 1759 
L 2194 1759 
z
M 3341 1997 
L 3341 0 
L 2766 0 
L 2766 531 
Q 2569 213 2275 61 
Q 1981 -91 1556 -91 
Q 1019 -91 701 211 
Q 384 513 384 1019 
Q 384 1609 779 1909 
Q 1175 2209 1959 2209 
L 2766 2209 
L 2766 2266 
Q 2766 2663 2505 2880 
Q 2244 3097 1772 3097 
Q 1472 3097 1187 3025 
Q 903 2953 641 2809 
L 641 3341 
Q 956 3463 1253 3523 
Q 1550 3584 1831 3584 
Q 2591 3584 2966 3190 
Q 3341 2797 3341 1997 
z
" transform="scale(0.015625)"/>
        <path id="DejaVuSans-46" d="M 3122 3366 
L 3122 2828 
Q 2878 2963 2633 3030 
Q 2388 3097 2138 3097 
Q 1578 3097 1268 2742 
Q 959 2388 959 1747 
Q 959 1106 1268 751 
Q 1578 397 2138 397 
Q 2388 397 2633 464 
Q 2878 531 3122 666 
L 3122 134 
Q 2881 22 2623 -34 
Q 2366 -91 2075 -91 
Q 1284 -91 818 406 
Q 353 903 353 1747 
Q 353 2603 823 3093 
Q 1294 3584 2113 3584 
Q 2378 3584 2631 3529 
Q 2884 3475 3122 3366 
z
" transform="scale(0.015625)"/>
        <path id="DejaVuSans-4e" d="M 581 4863 
L 1159 4863 
L 1159 1991 
L 2875 3500 
L 3609 3500 
L 1753 1863 
L 3688 0 
L 2938 0 
L 1159 1709 
L 1159 0 
L 581 0 
L 581 4863 
z
" transform="scale(0.015625)"/>
       </defs>
       <use xlink:href="#DejaVuSans-53"/>
       <use xlink:href="#DejaVuSans-4f" transform="translate(63.484375 0)"/>
       <use xlink:href="#DejaVuSans-44" transform="translate(91.265625 0)"/>
       <use xlink:href="#DejaVuSans-5c" transform="translate(152.546875 0)"/>
       <use xlink:href="#DejaVuSans-45" transform="translate(211.734375 0)"/>
       <use xlink:href="#DejaVuSans-44" transform="translate(275.21875 0)"/>
       <use xlink:href="#DejaVuSans-46" transform="translate(336.5 0)"/>
       <use xlink:href="#DejaVuSans-4e" transform="translate(391.484375 0)"/>
      </g>
      <!-- click -->
      <g transform="translate(25.27625 113.577336) scale(0.08 -0.08)">
       <defs>
        <path id="DejaVuSans-4c" d="M 603 3500 
L 1178 3500 
L 1178 0 
L 603 0 
L 603 3500 
z
M 603 4863 
L 1178 4863 
L 1178 4134 
L 603 4134 
L 603 4863 
z
" transform="scale(0.015625)"/>
       </defs>
       <use xlink:href="#DejaVuSans-46"/>
       <use xlink:href="#DejaVuSans-4f" transform="translate(54.984375 0)"/>
       <use xlink:href="#DejaVuSans-4c" transform="translate(82.765625 0)"/>
       <use xlink:href="#DejaVuSans-46" transform="translate(110.546875 0)"/>
       <use xlink:href="#DejaVuSans-4e" transform="translate(165.53125 0)"/>
      </g>
     </g>
    </g>
    <g id="ytick_2">
     <g id="line2d_11">
      <g>
       <use xlink:href="#m19fa820035" x="50.15125" y="90.887062" style="stroke: #000000; stroke-width: 0.8"/>
      </g>
     </g>
     <g id="text_11">
      <!-- result -->
      <g transform="translate(20.52 89.525734) scale(0.08 -0.08)">
       <defs>
        <path id="DejaVuSans-56" d="M 2834 3397 
L 2834 2853 
Q 2591 2978 2328 3040 
Q 2066 3103 1784 3103 
Q 1356 3103 1142 2972 
Q 928 2841 928 2578 
Q 928 2378 1081 2264 
Q 1234 2150 1697 2047 
L 1894 2003 
Q 2506 1872 2764 1633 
Q 3022 1394 3022 966 
Q 3022 478 2636 193 
Q 2250 -91 1575 -91 
Q 1294 -91 989 -36 
Q 684 19 347 128 
L 347 722 
Q 666 556 975 473 
Q 1284 391 1588 391 
Q 1994 391 2212 530 
Q 2431 669 2431 922 
Q 2431 1156 2273 1281 
Q 2116 1406 1581 1522 
L 1381 1569 
Q 847 1681 609 1914 
Q 372 2147 372 2553 
Q 372 3047 722 3315 
Q 1072 3584 1716 3584 
Q 2034 3584 2315 3537 
Q 2597 3491 2834 3397 
z
" transform="scale(0.015625)"/>
       </defs>
       <use xlink:href="#DejaVuSans-55"/>
       <use xlink:href="#DejaVuSans-48" transform="translate(38.90625 0)"/>
       <use xlink:href="#DejaVuSans-56" transform="translate(100.4375 0)"/>
       <use xlink:href="#DejaVuSans-58" transform="translate(152.53125 0)"/>
       <use xlink:href="#DejaVuSans-4f" transform="translate(215.90625 0)"/>
       <use xlink:href="#DejaVuSans-57" transform="translate(243.6875 0)"/>
      </g>
      <!-- click -->
      <g transform="translate(25.27625 99.127922) scale(0.08 -0.08)">
       <use xlink:href="#DejaVuSans-46"/>
       <use xlink:href="#DejaVuSans-4f" transform="translate(54.984375 0)"/>
       <use xlink:href="#DejaVuSans-4c" transform="translate(82.765625 0)"/>
       <use xlink:href="#DejaVuSans-46" transform="translate(110.546875 0)"/>
       <use xlink:href="#DejaVuSans-4e" transform="translate(165.53125 0)"/>
      </g>
     </g>
    </g>
    <g id="ytick_3">
     <g id="line2d_12">
      <g>
       <use xlink:href="#m19fa820035" x="50.15125" y="76.437648" style="stroke: #000000; stroke-width: 0.8"/>
      </g>
     </g>
     <g id="text_12">
      <!-- query -->
      <g transform="translate(20.05625 79.476711) scale(0.08 -0.08)">
       <defs>
        <path id="DejaVuSans-54" d="M 947 1747 
Q 947 1113 1208 752 
Q 1469 391 1925 391 
Q 2381 391 2643 752 
Q 2906 1113 2906 1747 
Q 2906 2381 2643 2742 
Q 2381 3103 1925 3103 
Q 1469 3103 1208 2742 
Q 947 2381 947 1747 
z
M 2906 525 
Q 2725 213 2448 61 
Q 2172 -91 1784 -91 
Q 1150 -91 751 415 
Q 353 922 353 1747 
Q 353 2572 751 3078 
Q 1150 3584 1784 3584 
Q 2172 3584 2448 3432 
Q 2725 3281 2906 2969 
L 2906 3500 
L 3481 3500 
L 3481 -1331 
L 2906 -1331 
L 2906 525 
z
" transform="scale(0.015625)"/>
       </defs>
       <use xlink:href="#DejaVuSans-54"/>
       <use xlink:href="#DejaVuSans-58" transform="translate(63.484375 0)"/>
       <use xlink:href="#DejaVuSans-48" transform="translate(126.859375 0)"/>
       <use xlink:href="#DejaVuSans-55" transform="translate(188.390625 0)"/>
       <use xlink:href="#DejaVuSans-5c" transform="translate(229.5 0)"/>
      </g>
     </g>
    </g>
   </g>
   <g id="PathCollection_1">
    <defs>
     <path id="mfeac3529b9" d="M 0 2.345208 
C 0.621956 2.345208 1.218523 2.098102 1.658312 1.658312 
C 2.098102 1.218523 2.345208 0.621956 2.345208 0 
C 2.345208 -0.621956 2.098102 -1.218523 1.658312 -1.658312 
C 1.218523 -2.098102 0.621956 -2.345208 0 -2.345208 
C -0.621956 -2.345208 -1.218523 -2.098102 -1.658312 -1.658312 
C -2.098102 -1.218523 -2.345208 -0.621956 -2.345208 0 
C -2.345208 0.621956 -2.098102 1.218523 -1.658312 1.658312 
C -1.218523 2.098102 -0.621956 2.345208 0 2.345208 
z
" style="stroke: #0072b2"/>
    </defs>
    <g clip-path="url(#pcb57677ac4)">
     <use xlink:href="#mfeac3529b9" x="66.683129" y="76.437648" style="fill: #0072b2; stroke: #0072b2"/>
     <use xlink:href="#mfeac3529b9" x="69.150573" y="76.437648" style="fill: #0072b2; stroke: #0072b2"/>
     <use xlink:href="#mfeac3529b9" x="180.185579" y="76.437648" style="fill: #0072b2; stroke: #0072b2"/>
     <use xlink:href="#mfeac3529b9" x="182.653023" y="76.437648" style="fill: #0072b2; stroke: #0072b2"/>
     <use xlink:href="#mfeac3529b9" x="204.860025" y="76.437648" style="fill: #0072b2; stroke: #0072b2"/>
     <use xlink:href="#mfeac3529b9" x="207.327469" y="76.437648" style="fill: #0072b2; stroke: #0072b2"/>
     <use xlink:href="#mfeac3529b9" x="214.729803" y="76.437648" style="fill: #0072b2; stroke: #0072b2"/>
     <use xlink:href="#mfeac3529b9" x="236.936804" y="76.437648" style="fill: #0072b2; stroke: #0072b2"/>
     <use xlink:href="#mfeac3529b9" x="239.404249" y="76.437648" style="fill: #0072b2; stroke: #0072b2"/>
     <use xlink:href="#mfeac3529b9" x="261.61125" y="76.437648" style="fill: #0072b2; stroke: #0072b2"/>
     <use xlink:href="#mfeac3529b9" x="264.078694" y="76.437648" style="fill: #0072b2; stroke: #0072b2"/>
     <use xlink:href="#mfeac3529b9" x="266.546139" y="76.437648" style="fill: #0072b2; stroke: #0072b2"/>
     <use xlink:href="#mfeac3529b9" x="269.013583" y="76.437648" style="fill: #0072b2; stroke: #0072b2"/>
     <use xlink:href="#mfeac3529b9" x="273.948473" y="76.437648" style="fill: #0072b2; stroke: #0072b2"/>
     <use xlink:href="#mfeac3529b9" x="325.764809" y="76.437648" style="fill: #0072b2; stroke: #0072b2"/>
     <use xlink:href="#mfeac3529b9" x="340.569476" y="76.437648" style="fill: #0072b2; stroke: #0072b2"/>
     <use xlink:href="#mfeac3529b9" x="343.036921" y="76.437648" style="fill: #0072b2; stroke: #0072b2"/>
     <use xlink:href="#mfeac3529b9" x="360.309033" y="76.437648" style="fill: #0072b2; stroke: #0072b2"/>
     <use xlink:href="#mfeac3529b9" x="362.776477" y="76.437648" style="fill: #0072b2; stroke: #0072b2"/>
     <use xlink:href="#mfeac3529b9" x="365.243922" y="76.437648" style="fill: #0072b2; stroke: #0072b2"/>
     <use xlink:href="#mfeac3529b9" x="367.711366" y="76.437648" style="fill: #0072b2; stroke: #0072b2"/>
     <use xlink:href="#mfeac3529b9" x="380.048589" y="76.437648" style="fill: #0072b2; stroke: #0072b2"/>
     <use xlink:href="#mfeac3529b9" x="382.516034" y="76.437648" style="fill: #0072b2; stroke: #0072b2"/>
     <use xlink:href="#mfeac3529b9" x="384.983478" y="76.437648" style="fill: #0072b2; stroke: #0072b2"/>
     <use xlink:href="#mfeac3529b9" x="389.918367" y="76.437648" style="fill: #0072b2; stroke: #0072b2"/>
     <use xlink:href="#mfeac3529b9" x="392.385812" y="76.437648" style="fill: #0072b2; stroke: #0072b2"/>
    </g>
   </g>
   <g id="PathCollection_2">
    <defs>
     <path id="m4ccff1d403" d="M 0 2.345208 
C 0.621956 2.345208 1.218523 2.098102 1.658312 1.658312 
C 2.098102 1.218523 2.345208 0.621956 2.345208 0 
C 2.345208 -0.621956 2.098102 -1.218523 1.658312 -1.658312 
C 1.218523 -2.098102 0.621956 -2.345208 0 -2.345208 
C -0.621956 -2.345208 -1.218523 -2.098102 -1.658312 -1.658312 
C -2.098102 -1.218523 -2.345208 -0.621956 -2.345208 0 
C -2.345208 0.621956 -2.098102 1.218523 -1.658312 1.658312 
C -1.218523 2.098102 -0.621956 2.345208 0 2.345208 
z
" style="stroke: #d55e00"/>
    </defs>
    <g clip-path="url(#pcb57677ac4)">
     <use xlink:href="#m4ccff1d403" x="71.618018" y="90.887062" style="fill: #d55e00; stroke: #d55e00"/>
     <use xlink:href="#m4ccff1d403" x="185.120468" y="90.887062" style="fill: #d55e00; stroke: #d55e00"/>
     <use xlink:href="#m4ccff1d403" x="209.794914" y="90.887062" style="fill: #d55e00; stroke: #d55e00"/>
     <use xlink:href="#m4ccff1d403" x="217.197247" y="90.887062" style="fill: #d55e00; stroke: #d55e00"/>
     <use xlink:href="#m4ccff1d403" x="241.871693" y="90.887062" style="fill: #d55e00; stroke: #d55e00"/>
     <use xlink:href="#m4ccff1d403" x="271.481028" y="90.887062" style="fill: #d55e00; stroke: #d55e00"/>
     <use xlink:href="#m4ccff1d403" x="276.415917" y="90.887062" style="fill: #d55e00; stroke: #d55e00"/>
     <use xlink:href="#m4ccff1d403" x="328.232253" y="90.887062" style="fill: #d55e00; stroke: #d55e00"/>
     <use xlink:href="#m4ccff1d403" x="345.504365" y="90.887062" style="fill: #d55e00; stroke: #d55e00"/>
     <use xlink:href="#m4ccff1d403" x="370.178811" y="90.887062" style="fill: #d55e00; stroke: #d55e00"/>
     <use xlink:href="#m4ccff1d403" x="387.450923" y="90.887062" style="fill: #d55e00; stroke: #d55e00"/>
     <use xlink:href="#m4ccff1d403" x="394.853257" y="90.887062" style="fill: #d55e00; stroke: #d55e00"/>
    </g>
   </g>
   <g id="PathCollection_3">
    <defs>
     <path id="mc8d9e2281d" d="M 0 2.345208 
C 0.621956 2.345208 1.218523 2.098102 1.658312 1.658312 
C 2.098102 1.218523 2.345208 0.621956 2.345208 0 
C 2.345208 -0.621956 2.098102 -1.218523 1.658312 -1.658312 
C 1.218523 -2.098102 0.621956 -2.345208 0 -2.345208 
C -0.621956 -2.345208 -1.218523 -2.098102 -1.658312 -1.658312 
C -2.098102 -1.218523 -2.345208 -0.621956 -2.345208 0 
C -2.345208 0.621956 -2.098102 1.218523 -1.658312 1.658312 
C -1.218523 2.098102 -0.621956 2.345208 0 2.345208 
z
" style="stroke: #009e73"/>
    </defs>
    <g clip-path="url(#pcb57677ac4)">
     <use xlink:href="#mc8d9e2281d" x="74.085462" y="105.336477" style="fill: #009e73; stroke: #009e73"/>
     <use xlink:href="#mc8d9e2281d" x="76.552907" y="105.336477" style="fill: #009e73; stroke: #009e73"/>
     <use xlink:href="#mc8d9e2281d" x="79.020351" y="105.336477" style="fill: #009e73; stroke: #009e73"/>
     <use xlink:href="#mc8d9e2281d" x="81.487796" y="105.336477" style="fill: #009e73; stroke: #009e73"/>
     <use xlink:href="#mc8d9e2281d" x="83.955241" y="105.336477" style="fill: #009e73; stroke: #009e73"/>
     <use xlink:href="#mc8d9e2281d" x="86.422685" y="105.336477" style="fill: #009e73; stroke: #009e73"/>
     <use xlink:href="#mc8d9e2281d" x="88.89013" y="105.336477" style="fill: #009e73; stroke: #009e73"/>
     <use xlink:href="#mc8d9e2281d" x="91.357574" y="105.336477" style="fill: #009e73; stroke: #009e73"/>
     <use xlink:href="#mc8d9e2281d" x="93.825019" y="105.336477" style="fill: #009e73; stroke: #009e73"/>
     <use xlink:href="#mc8d9e2281d" x="96.292463" y="105.336477" style="fill: #009e73; stroke: #009e73"/>
     <use xlink:href="#mc8d9e2281d" x="98.759908" y="105.336477" style="fill: #009e73; stroke: #009e73"/>
     <use xlink:href="#mc8d9e2281d" x="101.227353" y="105.336477" style="fill: #009e73; stroke: #009e73"/>
     <use xlink:href="#mc8d9e2281d" x="103.694797" y="105.336477" style="fill: #009e73; stroke: #009e73"/>
     <use xlink:href="#mc8d9e2281d" x="106.162242" y="105.336477" style="fill: #009e73; stroke: #009e73"/>
     <use xlink:href="#mc8d9e2281d" x="108.629686" y="105.336477" style="fill: #009e73; stroke: #009e73"/>
     <use xlink:href="#mc8d9e2281d" x="111.097131" y="105.336477" style="fill: #009e73; stroke: #009e73"/>
     <use xlink:href="#mc8d9e2281d" x="113.564575" y="105.336477" style="fill: #009e73; stroke: #009e73"/>
     <use xlink:href="#mc8d9e2281d" x="116.03202" y="105.336477" style="fill: #009e73; stroke: #009e73"/>
     <use xlink:href="#mc8d9e2281d" x="118.499465" y="105.336477" style="fill: #009e73; stroke: #009e73"/>
     <use xlink:href="#mc8d9e2281d" x="120.966909" y="105.336477" style="fill: #009e73; stroke: #009e73"/>
     <use xlink:href="#mc8d9e2281d" x="123.434354" y="105.336477" style="fill: #009e73; stroke: #009e73"/>
     <use xlink:href="#mc8d9e2281d" x="125.901798" y="105.336477" style="fill: #009e73; stroke: #009e73"/>
     <use xlink:href="#mc8d9e2281d" x="128.369243" y="105.336477" style="fill: #009e73; stroke: #009e73"/>
     <use xlink:href="#mc8d9e2281d" x="130.836687" y="105.336477" style="fill: #009e73; stroke: #009e73"/>
     <use xlink:href="#mc8d9e2281d" x="133.304132" y="105.336477" style="fill: #009e73; stroke: #009e73"/>
     <use xlink:href="#mc8d9e2281d" x="135.771577" y="105.336477" style="fill: #009e73; stroke: #009e73"/>
     <use xlink:href="#mc8d9e2281d" x="138.239021" y="105.336477" style="fill: #009e73; stroke: #009e73"/>
     <use xlink:href="#mc8d9e2281d" x="140.706466" y="105.336477" style="fill: #009e73; stroke: #009e73"/>
     <use xlink:href="#mc8d9e2281d" x="143.17391" y="105.336477" style="fill: #009e73; stroke: #009e73"/>
     <use xlink:href="#mc8d9e2281d" x="145.641355" y="105.336477" style="fill: #009e73; stroke: #009e73"/>
     <use xlink:href="#mc8d9e2281d" x="148.108799" y="105.336477" style="fill: #009e73; stroke: #009e73"/>
     <use xlink:href="#mc8d9e2281d" x="150.576244" y="105.336477" style="fill: #009e73; stroke: #009e73"/>
     <use xlink:href="#mc8d9e2281d" x="153.043689" y="105.336477" style="fill: #009e73; stroke: #009e73"/>
     <use xlink:href="#mc8d9e2281d" x="155.511133" y="105.336477" style="fill: #009e73; stroke: #009e73"/>
     <use xlink:href="#mc8d9e2281d" x="157.978578" y="105.336477" style="fill: #009e73; stroke: #009e73"/>
     <use xlink:href="#mc8d9e2281d" x="160.446022" y="105.336477" style="fill: #009e73; stroke: #009e73"/>
     <use xlink:href="#mc8d9e2281d" x="162.913467" y="105.336477" style="fill: #009e73; stroke: #009e73"/>
     <use xlink:href="#mc8d9e2281d" x="165.380911" y="105.336477" style="fill: #009e73; stroke: #009e73"/>
     <use xlink:href="#mc8d9e2281d" x="167.848356" y="105.336477" style="fill: #009e73; stroke: #009e73"/>
     <use xlink:href="#mc8d9e2281d" x="170.315801" y="105.336477" style="fill: #009e73; stroke: #009e73"/>
     <use xlink:href="#mc8d9e2281d" x="172.783245" y="105.336477" style="fill: #009e73; stroke: #009e73"/>
     <use xlink:href="#mc8d9e2281d" x="175.25069" y="105.336477" style="fill: #009e73; stroke: #009e73"/>
     <use xlink:href="#mc8d9e2281d" x="177.718134" y="105.336477" style="fill: #009e73; stroke: #009e73"/>
     <use xlink:href="#mc8d9e2281d" x="187.587913" y="105.336477" style="fill: #009e73; stroke: #009e73"/>
     <use xlink:href="#mc8d9e2281d" x="190.055357" y="105.336477" style="fill: #009e73; stroke: #009e73"/>
     <use xlink:href="#mc8d9e2281d" x="192.522802" y="105.336477" style="fill: #009e73; stroke: #009e73"/>
     <use xlink:href="#mc8d9e2281d" x="194.990246" y="105.336477" style="fill: #009e73; stroke: #009e73"/>
     <use xlink:href="#mc8d9e2281d" x="197.457691" y="105.336477" style="fill: #009e73; stroke: #009e73"/>
     <use xlink:href="#mc8d9e2281d" x="199.925135" y="105.336477" style="fill: #009e73; stroke: #009e73"/>
     <use xlink:href="#mc8d9e2281d" x="202.39258" y="105.336477" style="fill: #009e73; stroke: #009e73"/>
     <use xlink:href="#mc8d9e2281d" x="212.262358" y="105.336477" style="fill: #009e73; stroke: #009e73"/>
     <use xlink:href="#mc8d9e2281d" x="219.664692" y="105.336477" style="fill: #009e73; stroke: #009e73"/>
     <use xlink:href="#mc8d9e2281d" x="222.132137" y="105.336477" style="fill: #009e73; stroke: #009e73"/>
     <use xlink:href="#mc8d9e2281d" x="224.599581" y="105.336477" style="fill: #009e73; stroke: #009e73"/>
     <use xlink:href="#mc8d9e2281d" x="227.067026" y="105.336477" style="fill: #009e73; stroke: #009e73"/>
     <use xlink:href="#mc8d9e2281d" x="229.53447" y="105.336477" style="fill: #009e73; stroke: #009e73"/>
     <use xlink:href="#mc8d9e2281d" x="232.001915" y="105.336477" style="fill: #009e73; stroke: #009e73"/>
     <use xlink:href="#mc8d9e2281d" x="234.469359" y="105.336477" style="fill: #009e73; stroke: #009e73"/>
     <use xlink:href="#mc8d9e2281d" x="244.339138" y="105.336477" style="fill: #009e73; stroke: #009e73"/>
     <use xlink:href="#mc8d9e2281d" x="246.806582" y="105.336477" style="fill: #009e73; stroke: #009e73"/>
     <use xlink:href="#mc8d9e2281d" x="249.274027" y="105.336477" style="fill: #009e73; stroke: #009e73"/>
     <use xlink:href="#mc8d9e2281d" x="251.741471" y="105.336477" style="fill: #009e73; stroke: #009e73"/>
     <use xlink:href="#mc8d9e2281d" x="254.208916" y="105.336477" style="fill: #009e73; stroke: #009e73"/>
     <use xlink:href="#mc8d9e2281d" x="256.676361" y="105.336477" style="fill: #009e73; stroke: #009e73"/>
     <use xlink:href="#mc8d9e2281d" x="259.143805" y="105.336477" style="fill: #009e73; stroke: #009e73"/>
     <use xlink:href="#mc8d9e2281d" x="278.883362" y="105.336477" style="fill: #009e73; stroke: #009e73"/>
     <use xlink:href="#mc8d9e2281d" x="281.350806" y="105.336477" style="fill: #009e73; stroke: #009e73"/>
     <use xlink:href="#mc8d9e2281d" x="283.818251" y="105.336477" style="fill: #009e73; stroke: #009e73"/>
     <use xlink:href="#mc8d9e2281d" x="286.285695" y="105.336477" style="fill: #009e73; stroke: #009e73"/>
     <use xlink:href="#mc8d9e2281d" x="288.75314" y="105.336477" style="fill: #009e73; stroke: #009e73"/>
     <use xlink:href="#mc8d9e2281d" x="291.220585" y="105.336477" style="fill: #009e73; stroke: #009e73"/>
     <use xlink:href="#mc8d9e2281d" x="293.688029" y="105.336477" style="fill: #009e73; stroke: #009e73"/>
     <use xlink:href="#mc8d9e2281d" x="296.155474" y="105.336477" style="fill: #009e73; stroke: #009e73"/>
     <use xlink:href="#mc8d9e2281d" x="298.622918" y="105.336477" style="fill: #009e73; stroke: #009e73"/>
     <use xlink:href="#mc8d9e2281d" x="301.090363" y="105.336477" style="fill: #009e73; stroke: #009e73"/>
     <use xlink:href="#mc8d9e2281d" x="303.557807" y="105.336477" style="fill: #009e73; stroke: #009e73"/>
     <use xlink:href="#mc8d9e2281d" x="306.025252" y="105.336477" style="fill: #009e73; stroke: #009e73"/>
     <use xlink:href="#mc8d9e2281d" x="308.492697" y="105.336477" style="fill: #009e73; stroke: #009e73"/>
     <use xlink:href="#mc8d9e2281d" x="310.960141" y="105.336477" style="fill: #009e73; stroke: #009e73"/>
     <use xlink:href="#mc8d9e2281d" x="313.427586" y="105.336477" style="fill: #009e73; stroke: #009e73"/>
     <use xlink:href="#mc8d9e2281d" x="315.89503" y="105.336477" style="fill: #009e73; stroke: #009e73"/>
     <use xlink:href="#mc8d9e2281d" x="318.362475" y="105.336477" style="fill: #009e73; stroke: #009e73"/>
     <use xlink:href="#mc8d9e2281d" x="320.829919" y="105.336477" style="fill: #009e73; stroke: #009e73"/>
     <use xlink:href="#mc8d9e2281d" x="323.297364" y="105.336477" style="fill: #009e73; stroke: #009e73"/>
     <use xlink:href="#mc8d9e2281d" x="330.699698" y="105.336477" style="fill: #009e73; stroke: #009e73"/>
     <use xlink:href="#mc8d9e2281d" x="333.167142" y="105.336477" style="fill: #009e73; stroke: #009e73"/>
     <use xlink:href="#mc8d9e2281d" x="335.634587" y="105.336477" style="fill: #009e73; stroke: #009e73"/>
     <use xlink:href="#mc8d9e2281d" x="338.102031" y="105.336477" style="fill: #009e73; stroke: #009e73"/>
     <use xlink:href="#mc8d9e2281d" x="347.97181" y="105.336477" style="fill: #009e73; stroke: #009e73"/>
     <use xlink:href="#mc8d9e2281d" x="350.439254" y="105.336477" style="fill: #009e73; stroke: #009e73"/>
     <use xlink:href="#mc8d9e2281d" x="352.906699" y="105.336477" style="fill: #009e73; stroke: #009e73"/>
     <use xlink:href="#mc8d9e2281d" x="355.374143" y="105.336477" style="fill: #009e73; stroke: #009e73"/>
     <use xlink:href="#mc8d9e2281d" x="357.841588" y="105.336477" style="fill: #009e73; stroke: #009e73"/>
     <use xlink:href="#mc8d9e2281d" x="372.646255" y="105.336477" style="fill: #009e73; stroke: #009e73"/>
     <use xlink:href="#mc8d9e2281d" x="375.1137" y="105.336477" style="fill: #009e73; stroke: #009e73"/>
     <use xlink:href="#mc8d9e2281d" x="377.581145" y="105.336477" style="fill: #009e73; stroke: #009e73"/>
     <use xlink:href="#mc8d9e2281d" x="397.320701" y="105.336477" style="fill: #009e73; stroke: #009e73"/>
    </g>
   </g>
   <g id="patch_3">
    <path d="M 50.15125 114.006125 
L 50.15125 67.768 
" style="fill: none; stroke: #000000; stroke-width: 0.8; stroke-linejoin: miter; stroke-linecap: square"/>
   </g>
   <g id="patch_4">
    <path d="M 50.15125 114.006125 
L 413.85258 114.006125 
" style="fill: none; stroke: #000000; stroke-width: 0.8; stroke-linejoin: miter; stroke-linecap: square"/>
   </g>
   <g id="text_13">
    <!-- P02 -->
    <g transform="translate(50.15125 61.768) scale(0.1 -0.1)">
     <defs>
      <path id="DejaVuSans-Bold-33" d="M 588 4666 
L 2584 4666 
Q 3475 4666 3951 4270 
Q 4428 3875 4428 3144 
Q 4428 2409 3951 2014 
Q 3475 1619 2584 1619 
L 1791 1619 
L 1791 0 
L 588 0 
L 588 4666 
z
M 1791 3794 
L 1791 2491 
L 2456 2491 
Q 2806 2491 2997 2661 
Q 3188 2831 3188 3144 
Q 3188 3456 2997 3625 
Q 2806 3794 2456 3794 
L 1791 3794 
z
" transform="scale(0.015625)"/>
      <path id="DejaVuSans-Bold-13" d="M 2944 2338 
Q 2944 3213 2780 3570 
Q 2616 3928 2228 3928 
Q 1841 3928 1675 3570 
Q 1509 3213 1509 2338 
Q 1509 1453 1675 1090 
Q 1841 728 2228 728 
Q 2613 728 2778 1090 
Q 2944 1453 2944 2338 
z
M 4147 2328 
Q 4147 1169 3647 539 
Q 3147 -91 2228 -91 
Q 1306 -91 806 539 
Q 306 1169 306 2328 
Q 306 3491 806 4120 
Q 1306 4750 2228 4750 
Q 3147 4750 3647 4120 
Q 4147 3491 4147 2328 
z
" transform="scale(0.015625)"/>
      <path id="DejaVuSans-Bold-15" d="M 1844 884 
L 3897 884 
L 3897 0 
L 506 0 
L 506 884 
L 2209 2388 
Q 2438 2594 2547 2791 
Q 2656 2988 2656 3200 
Q 2656 3528 2436 3728 
Q 2216 3928 1850 3928 
Q 1569 3928 1234 3808 
Q 900 3688 519 3450 
L 519 4475 
Q 925 4609 1322 4679 
Q 1719 4750 2100 4750 
Q 2938 4750 3402 4381 
Q 3866 4013 3866 3353 
Q 3866 2972 3669 2642 
Q 3472 2313 2841 1759 
L 1844 884 
z
" transform="scale(0.015625)"/>
     </defs>
     <use xlink:href="#DejaVuSans-Bold-33"/>
     <use xlink:href="#DejaVuSans-Bold-13" transform="translate(73.296875 0)"/>
     <use xlink:href="#DejaVuSans-Bold-15" transform="translate(142.875 0)"/>
    </g>
   </g>
  </g>
  <g id="text_14">
   <!-- Click-based group: chronological query ↔ result-click ↔ playback sequence -->
   <g transform="translate(24.756719 14.798438) scale(0.1 -0.1)">
    <defs>
     <path id="DejaVuSans-26" d="M 4122 4306 
L 4122 3641 
Q 3803 3938 3442 4084 
Q 3081 4231 2675 4231 
Q 1875 4231 1450 3742 
Q 1025 3253 1025 2328 
Q 1025 1406 1450 917 
Q 1875 428 2675 428 
Q 3081 428 3442 575 
Q 3803 722 4122 1019 
L 4122 359 
Q 3791 134 3420 21 
Q 3050 -91 2638 -91 
Q 1578 -91 968 557 
Q 359 1206 359 2328 
Q 359 3453 968 4101 
Q 1578 4750 2638 4750 
Q 3056 4750 3426 4639 
Q 3797 4528 4122 4306 
z
" transform="scale(0.015625)"/>
     <path id="DejaVuSans-10" d="M 313 2009 
L 1997 2009 
L 1997 1497 
L 313 1497 
L 313 2009 
z
" transform="scale(0.015625)"/>
     <path id="DejaVuSans-47" d="M 2906 2969 
L 2906 4863 
L 3481 4863 
L 3481 0 
L 2906 0 
L 2906 525 
Q 2725 213 2448 61 
Q 2172 -91 1784 -91 
Q 1150 -91 751 415 
Q 353 922 353 1747 
Q 353 2572 751 3078 
Q 1150 3584 1784 3584 
Q 2172 3584 2448 3432 
Q 2725 3281 2906 2969 
z
M 947 1747 
Q 947 1113 1208 752 
Q 1469 391 1925 391 
Q 2381 391 2643 752 
Q 2906 1113 2906 1747 
Q 2906 2381 2643 2742 
Q 2381 3103 1925 3103 
Q 1469 3103 1208 2742 
Q 947 2381 947 1747 
z
" transform="scale(0.015625)"/>
     <path id="DejaVuSans-4a" d="M 2906 1791 
Q 2906 2416 2648 2759 
Q 2391 3103 1925 3103 
Q 1463 3103 1205 2759 
Q 947 2416 947 1791 
Q 947 1169 1205 825 
Q 1463 481 1925 481 
Q 2391 481 2648 825 
Q 2906 1169 2906 1791 
z
M 3481 434 
Q 3481 -459 3084 -895 
Q 2688 -1331 1869 -1331 
Q 1566 -1331 1297 -1286 
Q 1028 -1241 775 -1147 
L 775 -588 
Q 1028 -725 1275 -790 
Q 1522 -856 1778 -856 
Q 2344 -856 2625 -561 
Q 2906 -266 2906 331 
L 2906 616 
Q 2728 306 2450 153 
Q 2172 0 1784 0 
Q 1141 0 747 490 
Q 353 981 353 1791 
Q 353 2603 747 3093 
Q 1141 3584 1784 3584 
Q 2172 3584 2450 3431 
Q 2728 3278 2906 2969 
L 2906 3500 
L 3481 3500 
L 3481 434 
z
" transform="scale(0.015625)"/>
     <path id="DejaVuSans-52" d="M 1959 3097 
Q 1497 3097 1228 2736 
Q 959 2375 959 1747 
Q 959 1119 1226 758 
Q 1494 397 1959 397 
Q 2419 397 2687 759 
Q 2956 1122 2956 1747 
Q 2956 2369 2687 2733 
Q 2419 3097 1959 3097 
z
M 1959 3584 
Q 2709 3584 3137 3096 
Q 3566 2609 3566 1747 
Q 3566 888 3137 398 
Q 2709 -91 1959 -91 
Q 1206 -91 779 398 
Q 353 888 353 1747 
Q 353 2609 779 3096 
Q 1206 3584 1959 3584 
z
" transform="scale(0.015625)"/>
     <path id="DejaVuSans-1d" d="M 750 794 
L 1409 794 
L 1409 0 
L 750 0 
L 750 794 
z
M 750 3309 
L 1409 3309 
L 1409 2516 
L 750 2516 
L 750 3309 
z
" transform="scale(0.015625)"/>
     <path id="DejaVuSans-4b" d="M 3513 2113 
L 3513 0 
L 2938 0 
L 2938 2094 
Q 2938 2591 2744 2837 
Q 2550 3084 2163 3084 
Q 1697 3084 1428 2787 
Q 1159 2491 1159 1978 
L 1159 0 
L 581 0 
L 581 4863 
L 1159 4863 
L 1159 2956 
Q 1366 3272 1645 3428 
Q 1925 3584 2291 3584 
Q 2894 3584 3203 3211 
Q 3513 2838 3513 2113 
z
" transform="scale(0.015625)"/>
     <path id="DejaVuSans-c1e" d="M 313 1866 
L 313 2147 
L 1541 3375 
L 1916 3000 
L 1188 2272 
L 4175 2272 
L 3447 3000 
L 3822 3375 
L 5050 2147 
L 5050 1866 
L 3822 638 
L 3447 1013 
L 4175 1741 
L 1188 1741 
L 1916 1013 
L 1541 638 
L 313 1866 
z
" transform="scale(0.015625)"/>
    </defs>
    <use xlink:href="#DejaVuSans-26"/>
    <use xlink:href="#DejaVuSans-4f" transform="translate(69.828125 0)"/>
    <use xlink:href="#DejaVuSans-4c" transform="translate(97.609375 0)"/>
    <use xlink:href="#DejaVuSans-46" transform="translate(125.390625 0)"/>
    <use xlink:href="#DejaVuSans-4e" transform="translate(180.375 0)"/>
    <use xlink:href="#DejaVuSans-10" transform="translate(238.28125 0)"/>
    <use xlink:href="#DejaVuSans-45" transform="translate(274.359375 0)"/>
    <use xlink:href="#DejaVuSans-44" transform="translate(337.84375 0)"/>
    <use xlink:href="#DejaVuSans-56" transform="translate(399.125 0)"/>
    <use xlink:href="#DejaVuSans-48" transform="translate(451.21875 0)"/>
    <use xlink:href="#DejaVuSans-47" transform="translate(512.75 0)"/>
    <use xlink:href="#DejaVuSans-3" transform="translate(576.234375 0)"/>
    <use xlink:href="#DejaVuSans-4a" transform="translate(608.015625 0)"/>
    <use xlink:href="#DejaVuSans-55" transform="translate(671.5 0)"/>
    <use xlink:href="#DejaVuSans-52" transform="translate(710.40625 0)"/>
    <use xlink:href="#DejaVuSans-58" transform="translate(771.59375 0)"/>
    <use xlink:href="#DejaVuSans-53" transform="translate(834.96875 0)"/>
    <use xlink:href="#DejaVuSans-1d" transform="translate(898.453125 0)"/>
    <use xlink:href="#DejaVuSans-3" transform="translate(932.140625 0)"/>
    <use xlink:href="#DejaVuSans-46" transform="translate(963.921875 0)"/>
    <use xlink:href="#DejaVuSans-4b" transform="translate(1018.90625 0)"/>
    <use xlink:href="#DejaVuSans-55" transform="translate(1082.28125 0)"/>
    <use xlink:href="#DejaVuSans-52" transform="translate(1121.1875 0)"/>
    <use xlink:href="#DejaVuSans-51" transform="translate(1182.375 0)"/>
    <use xlink:href="#DejaVuSans-52" transform="translate(1245.75 0)"/>
    <use xlink:href="#DejaVuSans-4f" transform="translate(1306.9375 0)"/>
    <use xlink:href="#DejaVuSans-52" transform="translate(1334.71875 0)"/>
    <use xlink:href="#DejaVuSans-4a" transform="translate(1395.90625 0)"/>
    <use xlink:href="#DejaVuSans-4c" transform="translate(1459.390625 0)"/>
    <use xlink:href="#DejaVuSans-46" transform="translate(1487.171875 0)"/>
    <use xlink:href="#DejaVuSans-44" transform="translate(1542.15625 0)"/>
    <use xlink:href="#DejaVuSans-4f" transform="translate(1603.4375 0)"/>
    <use xlink:href="#DejaVuSans-3" transform="translate(1631.21875 0)"/>
    <use xlink:href="#DejaVuSans-54" transform="translate(1663 0)"/>
    <use xlink:href="#DejaVuSans-58" transform="translate(1726.484375 0)"/>
    <use xlink:href="#DejaVuSans-48" transform="translate(1789.859375 0)"/>
    <use xlink:href="#DejaVuSans-55" transform="translate(1851.390625 0)"/>
    <use xlink:href="#DejaVuSans-5c" transform="translate(1892.5 0)"/>
    <use xlink:href="#DejaVuSans-3" transform="translate(1951.6875 0)"/>
    <use xlink:href="#DejaVuSans-c1e" transform="translate(1983.46875 0)"/>
    <use xlink:href="#DejaVuSans-3" transform="translate(2067.265625 0)"/>
    <use xlink:href="#DejaVuSans-55" transform="translate(2099.046875 0)"/>
    <use xlink:href="#DejaVuSans-48" transform="translate(2137.953125 0)"/>
    <use xlink:href="#DejaVuSans-56" transform="translate(2199.484375 0)"/>
    <use xlink:href="#DejaVuSans-58" transform="translate(2251.578125 0)"/>
    <use xlink:href="#DejaVuSans-4f" transform="translate(2314.953125 0)"/>
    <use xlink:href="#DejaVuSans-57" transform="translate(2342.734375 0)"/>
    <use xlink:href="#DejaVuSans-10" transform="translate(2381.9375 0)"/>
    <use xlink:href="#DejaVuSans-46" transform="translate(2418.015625 0)"/>
    <use xlink:href="#DejaVuSans-4f" transform="translate(2473 0)"/>
    <use xlink:href="#DejaVuSans-4c" transform="translate(2500.78125 0)"/>
    <use xlink:href="#DejaVuSans-46" transform="translate(2528.5625 0)"/>
    <use xlink:href="#DejaVuSans-4e" transform="translate(2583.546875 0)"/>
    <use xlink:href="#DejaVuSans-3" transform="translate(2641.453125 0)"/>
    <use xlink:href="#DejaVuSans-c1e" transform="translate(2673.234375 0)"/>
    <use xlink:href="#DejaVuSans-3" transform="translate(2757.03125 0)"/>
    <use xlink:href="#DejaVuSans-53" transform="translate(2788.8125 0)"/>
    <use xlink:href="#DejaVuSans-4f" transform="translate(2852.296875 0)"/>
    <use xlink:href="#DejaVuSans-44" transform="translate(2880.078125 0)"/>
    <use xlink:href="#DejaVuSans-5c" transform="translate(2941.359375 0)"/>
    <use xlink:href="#DejaVuSans-45" transform="translate(3000.546875 0)"/>
    <use xlink:href="#DejaVuSans-44" transform="translate(3064.03125 0)"/>
    <use xlink:href="#DejaVuSans-46" transform="translate(3125.3125 0)"/>
    <use xlink:href="#DejaVuSans-4e" transform="translate(3180.296875 0)"/>
    <use xlink:href="#DejaVuSans-3" transform="translate(3238.203125 0)"/>
    <use xlink:href="#DejaVuSans-56" transform="translate(3269.984375 0)"/>
    <use xlink:href="#DejaVuSans-48" transform="translate(3322.078125 0)"/>
    <use xlink:href="#DejaVuSans-54" transform="translate(3383.609375 0)"/>
    <use xlink:href="#DejaVuSans-58" transform="translate(3447.09375 0)"/>
    <use xlink:href="#DejaVuSans-48" transform="translate(3510.46875 0)"/>
    <use xlink:href="#DejaVuSans-51" transform="translate(3572 0)"/>
    <use xlink:href="#DejaVuSans-46" transform="translate(3635.375 0)"/>
    <use xlink:href="#DejaVuSans-48" transform="translate(3690.359375 0)"/>
   </g>
  </g>
  <g id="legend_1">
   <g id="line2d_13">
    <defs>
     <path id="m0066bc0faa" d="M 0 3.5 
C 0.928211 3.5 1.81853 3.131218 2.474874 2.474874 
C 3.131218 1.81853 3.5 0.928211 3.5 0 
C 3.5 -0.928211 3.131218 -1.81853 2.474874 -2.474874 
C 1.81853 -3.131218 0.928211 -3.5 0 -3.5 
C -0.928211 -3.5 -1.81853 -3.131218 -2.474874 -2.474874 
C -3.131218 -1.81853 -3.5 -0.928211 -3.5 0 
C -3.5 0.928211 -3.131218 1.81853 -2.474874 2.474874 
C -1.81853 3.131218 -0.928211 3.5 0 3.5 
z
" style="stroke: #0072b2"/>
    </defs>
    <g>
     <use xlink:href="#m0066bc0faa" x="76.875625" y="25.88675" style="fill: #0072b2; stroke: #0072b2"/>
    </g>
   </g>
   <g id="text_15">
    <!-- query -->
    <g transform="translate(91.275625 28.68675) scale(0.08 -0.08)">
     <use xlink:href="#DejaVuSans-54"/>
     <use xlink:href="#DejaVuSans-58" transform="translate(63.484375 0)"/>
     <use xlink:href="#DejaVuSans-48" transform="translate(126.859375 0)"/>
     <use xlink:href="#DejaVuSans-55" transform="translate(188.390625 0)"/>
     <use xlink:href="#DejaVuSans-5c" transform="translate(229.5 0)"/>
    </g>
   </g>
   <g id="line2d_14">
    <defs>
     <path id="mab9b18b945" d="M 0 3.5 
C 0.928211 3.5 1.81853 3.131218 2.474874 2.474874 
C 3.131218 1.81853 3.5 0.928211 3.5 0 
C 3.5 -0.928211 3.131218 -1.81853 2.474874 -2.474874 
C 1.81853 -3.131218 0.928211 -3.5 0 -3.5 
C -0.928211 -3.5 -1.81853 -3.131218 -2.474874 -2.474874 
C -3.131218 -1.81853 -3.5 -0.928211 -3.5 0 
C -3.5 0.928211 -3.131218 1.81853 -2.474874 2.474874 
C -1.81853 3.131218 -0.928211 3.5 0 3.5 
z
" style="stroke: #d55e00"/>
    </defs>
    <g>
     <use xlink:href="#mab9b18b945" x="138.370625" y="25.88675" style="fill: #d55e00; stroke: #d55e00"/>
    </g>
   </g>
   <g id="text_16">
    <!-- search result clicked -->
    <g transform="translate(152.770625 28.68675) scale(0.08 -0.08)">
     <use xlink:href="#DejaVuSans-56"/>
     <use xlink:href="#DejaVuSans-48" transform="translate(52.09375 0)"/>
     <use xlink:href="#DejaVuSans-44" transform="translate(113.625 0)"/>
     <use xlink:href="#DejaVuSans-55" transform="translate(174.90625 0)"/>
     <use xlink:href="#DejaVuSans-46" transform="translate(213.8125 0)"/>
     <use xlink:href="#DejaVuSans-4b" transform="translate(268.796875 0)"/>
     <use xlink:href="#DejaVuSans-3" transform="translate(332.171875 0)"/>
     <use xlink:href="#DejaVuSans-55" transform="translate(363.953125 0)"/>
     <use xlink:href="#DejaVuSans-48" transform="translate(402.859375 0)"/>
     <use xlink:href="#DejaVuSans-56" transform="translate(464.390625 0)"/>
     <use xlink:href="#DejaVuSans-58" transform="translate(516.484375 0)"/>
     <use xlink:href="#DejaVuSans-4f" transform="translate(579.859375 0)"/>
     <use xlink:href="#DejaVuSans-57" transform="translate(607.640625 0)"/>
     <use xlink:href="#DejaVuSans-3" transform="translate(646.84375 0)"/>
     <use xlink:href="#DejaVuSans-46" transform="translate(678.625 0)"/>
     <use xlink:href="#DejaVuSans-4f" transform="translate(733.609375 0)"/>
     <use xlink:href="#DejaVuSans-4c" transform="translate(761.390625 0)"/>
     <use xlink:href="#DejaVuSans-46" transform="translate(789.171875 0)"/>
     <use xlink:href="#DejaVuSans-4e" transform="translate(844.15625 0)"/>
     <use xlink:href="#DejaVuSans-48" transform="translate(898.5 0)"/>
     <use xlink:href="#DejaVuSans-47" transform="translate(960.03125 0)"/>
    </g>
   </g>
   <g id="line2d_15">
    <defs>
     <path id="m27e85932e3" d="M 0 3.5 
C 0.928211 3.5 1.81853 3.131218 2.474874 2.474874 
C 3.131218 1.81853 3.5 0.928211 3.5 0 
C 3.5 -0.928211 3.131218 -1.81853 2.474874 -2.474874 
C 1.81853 -3.131218 0.928211 -3.5 0 -3.5 
C -0.928211 -3.5 -1.81853 -3.131218 -2.474874 -2.474874 
C -3.131218 -1.81853 -3.5 -0.928211 -3.5 0 
C -3.5 0.928211 -3.131218 1.81853 -2.474874 2.474874 
C -1.81853 3.131218 -0.928211 3.5 0 3.5 
z
" style="stroke: #009e73"/>
    </defs>
    <g>
     <use xlink:href="#m27e85932e3" x="258.651875" y="25.88675" style="fill: #009e73; stroke: #009e73"/>
    </g>
   </g>
   <g id="text_17">
    <!-- playback link clicked -->
    <g transform="translate(273.051875 28.68675) scale(0.08 -0.08)">
     <use xlink:href="#DejaVuSans-53"/>
     <use xlink:href="#DejaVuSans-4f" transform="translate(63.484375 0)"/>
     <use xlink:href="#DejaVuSans-44" transform="translate(91.265625 0)"/>
     <use xlink:href="#DejaVuSans-5c" transform="translate(152.546875 0)"/>
     <use xlink:href="#DejaVuSans-45" transform="translate(211.734375 0)"/>
     <use xlink:href="#DejaVuSans-44" transform="translate(275.21875 0)"/>
     <use xlink:href="#DejaVuSans-46" transform="translate(336.5 0)"/>
     <use xlink:href="#DejaVuSans-4e" transform="translate(391.484375 0)"/>
     <use xlink:href="#DejaVuSans-3" transform="translate(449.390625 0)"/>
     <use xlink:href="#DejaVuSans-4f" transform="translate(481.171875 0)"/>
     <use xlink:href="#DejaVuSans-4c" transform="translate(508.953125 0)"/>
     <use xlink:href="#DejaVuSans-51" transform="translate(536.734375 0)"/>
     <use xlink:href="#DejaVuSans-4e" transform="translate(600.109375 0)"/>
     <use xlink:href="#DejaVuSans-3" transform="translate(658.015625 0)"/>
     <use xlink:href="#DejaVuSans-46" transform="translate(689.796875 0)"/>
     <use xlink:href="#DejaVuSans-4f" transform="translate(744.78125 0)"/>
     <use xlink:href="#DejaVuSans-4c" transform="translate(772.5625 0)"/>
     <use xlink:href="#DejaVuSans-46" transform="translate(800.34375 0)"/>
     <use xlink:href="#DejaVuSans-4e" transform="translate(855.328125 0)"/>
     <use xlink:href="#DejaVuSans-48" transform="translate(909.671875 0)"/>
     <use xlink:href="#DejaVuSans-47" transform="translate(971.203125 0)"/>
    </g>
   </g>
  </g>
 </g>
 <defs>
  <clipPath id="pcb57677ac4">
   <rect x="50.15125" y="67.768" width="363.70133" height="46.238125"/>
  </clipPath>
 </defs>
</svg>
